<svg width="330" height="92" viewBox="0 0 330 92" fill="none" xmlns="http://www.w3.org/2000/svg">
<g filter="url(#filter0_d_2_2)">
<mask id="path-1-outside-1_2_2" maskUnits="userSpaceOnUse" x="-1" y="-5" width="332" height="94" fill="black">
<rect fill="white" x="-1" y="-5" width="332" height="94"/>
<path d="M19.56 77.16C9.66 77.16 4.71 72.12 4.71 62.04C4.71 59.1 5.4 55.53 6.78 51.33C8.22 47.13 10.32 42.78 13.08 38.28C15.84 33.72 18.96 29.49 22.44 25.59C25.92 21.69 30 18.48 34.68 15.96C39.36 13.44 44.07 12.18 48.81 12.18C51.03 12.18 52.74 12.45 53.94 12.99C55.14 13.47 55.77 13.71 55.83 13.71C55.95 13.71 56.7 13.41 58.08 12.81C59.52 12.21 61.2 11.91 63.12 11.91C65.1 11.91 66.09 12.48 66.09 13.62C66.09 14.7 64.92 17.1 62.58 20.82C60.3 24.54 57.54 28.11 54.3 31.53C51.06 34.95 48.48 36.66 46.56 36.66C46.32 36.72 46.02 36.75 45.66 36.75C44.52 36.75 43.95 36.42 43.95 35.76C43.95 35.64 44.37 34.98 45.21 33.78C46.05 32.52 46.89 30.87 47.73 28.83C48.57 26.73 48.99 25.05 48.99 23.79C48.99 22.53 48.93 21.63 48.81 21.09C48.69 20.55 48.27 19.92 47.55 19.2C46.89 18.48 45.96 18.12 44.76 18.12C41.52 18.12 37.65 20.58 33.15 25.5C28.71 30.42 24.87 36.21 21.63 42.87C18.45 49.47 16.86 55.08 16.86 59.7C16.86 65.22 19.38 67.98 24.42 67.98C30.42 67.98 36.24 64.11 41.88 56.37C42.12 55.89 42.36 55.65 42.6 55.65C42.9 55.65 43.11 55.68 43.23 55.74C43.41 55.74 43.62 55.92 43.86 56.28C44.16 56.58 44.31 57.18 44.31 58.08C44.31 58.98 43.68 60.48 42.42 62.58C41.22 64.68 39.6 66.84 37.56 69.06C35.52 71.28 32.88 73.2 29.64 74.82C26.4 76.38 23.04 77.16 19.56 77.16ZM49.5701 76.17C48.1901 75.51 47.0501 74.34 46.1501 72.66C45.3101 70.98 44.8901 68.91 44.8901 66.45C44.8901 62.61 46.1201 58.59 48.5801 54.39C51.1001 50.19 54.6101 46.59 59.1101 43.59C63.6701 40.59 68.4701 39.09 73.5101 39.09C75.8501 39.09 77.8001 39.72 79.3601 40.98C80.9201 42.24 81.7001 43.5 81.7001 44.76C81.7001 45.96 81.5201 46.92 81.1601 47.64C80.8001 48.36 80.6201 48.84 80.6201 49.08C80.6201 49.8 81.1901 50.16 82.3301 50.16C83.4701 50.16 84.3401 50.01 84.9401 49.71C85.5401 49.41 85.9001 49.26 86.0201 49.26C86.5001 49.26 86.7401 49.89 86.7401 51.15C86.7401 52.35 86.1401 53.79 84.9401 55.47C83.7401 57.09 82.2701 58.29 80.5301 59.07C80.2901 59.55 79.9601 60.24 79.5401 61.14C79.1201 61.98 78.1301 63.48 76.5701 65.64C75.0101 67.74 73.3301 69.63 71.5301 71.31C69.7901 72.93 67.4501 74.4 64.5101 75.72C61.6301 77.1 58.9901 77.79 56.5901 77.79C54.1901 77.79 51.8501 77.25 49.5701 76.17ZM69.6401 60.69C69.6401 60.21 69.3701 59.97 68.8301 59.97C68.0501 59.97 67.1501 60.15 66.1301 60.51C65.1701 60.87 64.6301 61.05 64.5101 61.05C64.1501 61.05 63.9701 60.78 63.9701 60.24C63.9701 57.9 64.8101 55.89 66.4901 54.21C67.1501 53.49 68.1101 52.89 69.3701 52.41C70.6301 51.87 71.5901 51.27 72.2501 50.61C72.9701 49.89 73.3301 48.69 73.3301 47.01C73.3301 44.97 72.2501 43.95 70.0901 43.95C66.2501 43.95 62.5901 46.68 59.1101 52.14C55.6301 57.54 53.8901 62.37 53.8901 66.63C53.8901 68.07 54.3701 69.3 55.3301 70.32C56.3501 71.34 57.5501 71.85 58.9301 71.85C62.0501 71.85 64.6001 70.56 66.5801 67.98C68.6201 65.34 69.6401 62.91 69.6401 60.69ZM105.8 78.87C104.12 78.87 103.28 78.48 103.28 77.7L103.46 77.16C107.06 71.76 110.15 66.57 112.73 61.59C115.31 56.55 116.6 53.28 116.6 51.78C116.6 51.3 116.48 50.94 116.24 50.7C116 50.4 115.64 50.22 115.16 50.16C112.82 50.16 109.67 51.66 105.71 54.66C101.81 57.66 98.3604 60.75 95.3604 63.93C92.4204 67.11 90.2304 69.72 88.7904 71.76C87.3504 73.74 85.1904 74.73 82.3104 74.73C80.7504 74.73 79.9704 74.34 79.9704 73.56C79.9704 72 82.9104 66.51 88.7904 57.09C94.6704 47.61 98.5704 42.51 100.49 41.79C101.51 41.19 102.8 40.89 104.36 40.89C105.98 40.89 106.79 41.22 106.79 41.88C106.79 42.48 106.07 43.83 104.63 45.93C103.19 48.03 102.47 49.38 102.47 49.98C102.59 50.46 102.83 50.7 103.19 50.7C103.61 50.7 103.97 50.58 104.27 50.34C113.15 43.44 120.23 39.99 125.51 39.99C127.73 39.99 128.84 41.28 128.84 43.86C128.84 45.54 127.58 49.17 125.06 54.75C122.6 60.33 119.45 65.76 115.61 71.04C111.83 76.26 108.56 78.87 105.8 78.87ZM169.191 17.49L173.601 17.31C174.201 17.31 174.501 17.43 174.501 17.67C174.501 17.91 174.441 18.21 174.321 18.57C174.201 18.93 173.931 19.38 173.511 19.92C173.151 20.46 172.701 20.94 172.161 21.36C170.721 22.5 168.921 23.07 166.761 23.07C164.661 23.07 163.101 23.13 162.081 23.25C161.121 23.37 160.281 23.67 159.561 24.15C158.841 24.63 158.361 24.99 158.121 25.23C157.881 25.47 157.461 26.07 156.861 27.03C156.261 27.99 155.841 28.65 155.601 29.01C152.421 33.45 147.261 41.82 140.121 54.12C133.041 66.42 128.631 75.93 126.891 82.65C126.711 83.25 126.141 83.55 125.181 83.55C124.281 83.55 123.021 82.77 121.401 81.21C119.781 79.65 118.971 78.06 118.971 76.44C118.971 74.82 121.401 69.99 126.261 61.95C131.181 53.91 136.101 46.02 141.021 38.28C145.941 30.48 148.401 26.16 148.401 25.32C148.401 24.42 148.041 23.88 147.321 23.7C146.601 23.46 145.341 23.34 143.541 23.34H140.571C139.791 23.34 139.401 22.98 139.401 22.26C139.401 21.54 139.731 20.79 140.391 20.01C141.111 19.17 142.161 18.45 143.541 17.85C144.981 17.25 146.421 16.65 147.861 16.05C149.361 15.45 151.281 14.1 153.621 12C156.021 9.9 158.421 7.2 160.821 3.9C162.321 1.86 164.901 0.839995 168.561 0.839995C169.821 0.839995 170.451 1.22999 170.451 2.01C170.451 2.49 169.101 4.68 166.401 8.58C163.701 12.48 162.351 14.94 162.351 15.96C162.351 16.92 163.251 17.4 165.051 17.4C165.771 17.46 167.151 17.49 169.191 17.49ZM159.076 71.85L159.256 69.96C159.256 69.48 159.076 69.24 158.716 69.24C158.176 69.24 157.066 70.02 155.386 71.58C153.766 73.14 151.696 74.7 149.176 76.26C146.716 77.88 144.226 78.69 141.706 78.69C139.246 78.69 138.016 76.86 138.016 73.2C138.016 68.64 139.996 63.39 143.956 57.45C145.996 54.45 148.336 51.69 150.976 49.17C153.676 46.59 156.946 44.49 160.786 42.87C164.626 41.19 168.646 40.35 172.846 40.35C175.066 40.35 176.956 40.95 178.516 42.15C180.076 43.29 180.856 44.73 180.856 46.47C180.856 48.15 180.346 48.99 179.326 48.99C178.786 48.99 178.066 48.66 177.166 48C175.486 46.86 172.846 46.29 169.246 46.29C164.506 46.29 160.006 48.45 155.746 52.77C151.546 57.03 149.446 61.26 149.446 65.46C149.446 66 149.596 66.51 149.896 66.99C150.256 67.47 150.736 67.71 151.336 67.71C153.136 67.71 155.446 66.48 158.266 64.02C161.086 61.5 163.846 57.9 166.546 53.22C166.726 52.68 167.386 52.17 168.526 51.69C169.666 51.21 171.016 50.97 172.576 50.97C174.796 51.15 175.906 51.63 175.906 52.41C175.906 52.47 175.666 52.86 175.186 53.58C174.766 54.24 173.986 55.47 172.846 57.27C171.706 59.07 170.086 62.04 167.986 66.18C165.946 70.26 164.746 73.5 164.386 75.9C164.326 76.62 164.026 76.98 163.486 76.98C160.546 76.98 159.076 75.27 159.076 71.85ZM200.788 42.15L202.318 42.24C203.338 42.24 204.148 41.73 204.748 40.71C205.228 39.39 206.998 38.76 210.058 38.82C213.118 38.82 214.648 39.45 214.648 40.71C214.648 40.89 213.958 41.67 212.578 43.05C211.198 44.43 209.518 46.41 207.538 48.99C205.558 51.51 204.028 54.06 202.948 56.64C202.828 57 202.348 57.18 201.508 57.18C200.728 57.18 200.098 56.82 199.618 56.1C199.138 55.32 198.898 54.51 198.898 53.67C198.898 52.77 198.988 51.99 199.168 51.33C199.408 50.67 199.528 50.19 199.528 49.89C199.528 48.75 198.898 48.18 197.638 48.18C194.158 48.18 191.068 50.19 188.368 54.21C185.668 58.17 184.318 61.8 184.318 65.1C184.318 69.48 186.448 71.67 190.708 71.67C193.288 71.67 195.538 71.07 197.458 69.87C197.878 69.51 198.298 69.33 198.718 69.33C199.378 69.33 199.708 69.66 199.708 70.32C199.708 71.88 198.298 73.68 195.478 75.72C192.658 77.82 189.268 78.87 185.308 78.87C181.408 78.87 178.708 77.88 177.208 75.9C175.768 73.98 175.048 71.85 175.048 69.51C175.048 67.11 175.678 64.41 176.938 61.41C178.258 58.41 179.968 55.47 182.068 52.59C184.228 49.65 186.988 47.19 190.348 45.21C193.708 43.17 197.188 42.15 200.788 42.15ZM251.105 17.49L255.515 17.31C256.115 17.31 256.415 17.43 256.415 17.67C256.415 17.91 256.355 18.21 256.235 18.57C256.115 18.93 255.845 19.38 255.425 19.92C255.065 20.46 254.615 20.94 254.075 21.36C252.635 22.5 250.835 23.07 248.675 23.07C246.575 23.07 245.015 23.13 243.995 23.25C243.035 23.37 242.195 23.67 241.475 24.15C240.755 24.63 240.275 24.99 240.035 25.23C239.795 25.47 239.375 26.07 238.775 27.03C238.175 27.99 237.755 28.65 237.515 29.01C234.335 33.45 229.175 41.82 222.035 54.12C214.955 66.42 210.545 75.93 208.805 82.65C208.625 83.25 208.055 83.55 207.095 83.55C206.195 83.55 204.935 82.77 203.315 81.21C201.695 79.65 200.885 78.06 200.885 76.44C200.885 74.82 203.315 69.99 208.175 61.95C213.095 53.91 218.015 46.02 222.935 38.28C227.855 30.48 230.315 26.16 230.315 25.32C230.315 24.42 229.955 23.88 229.235 23.7C228.515 23.46 227.255 23.34 225.455 23.34H222.485C221.705 23.34 221.315 22.98 221.315 22.26C221.315 21.54 221.645 20.79 222.305 20.01C223.025 19.17 224.075 18.45 225.455 17.85C226.895 17.25 228.335 16.65 229.775 16.05C231.275 15.45 233.195 14.1 235.535 12C237.935 9.9 240.335 7.2 242.735 3.9C244.235 1.86 246.815 0.839995 250.475 0.839995C251.735 0.839995 252.365 1.22999 252.365 2.01C252.365 2.49 251.015 4.68 248.315 8.58C245.615 12.48 244.265 14.94 244.265 15.96C244.265 16.92 245.165 17.4 246.965 17.4C247.685 17.46 249.065 17.49 251.105 17.49ZM256.653 77.25C252.333 77.25 248.733 76.23 245.853 74.19C243.033 72.15 241.623 69.27 241.623 65.55C241.623 63.15 242.793 59.61 245.133 54.93C247.533 50.19 250.773 44.4 254.853 37.56C258.993 30.72 261.933 25.56 263.673 22.08C265.473 18.54 266.373 15.66 266.373 13.44C266.373 12.84 266.553 12.36 266.913 12C267.753 11.16 270.633 10.74 275.553 10.74C278.793 10.74 280.413 11.37 280.413 12.63C280.413 13.23 280.203 13.74 279.783 14.16C276.483 18.78 271.413 27 264.573 38.82C257.733 50.64 254.313 58.17 254.313 61.41C254.313 66.15 256.473 68.52 260.793 68.52C264.693 68.52 267.723 67.5 269.883 65.46C271.503 63.84 272.853 62.16 273.933 60.42C276.333 56.76 279.453 51.03 283.293 43.23C287.133 35.37 290.553 28.41 293.553 22.35C296.613 16.23 298.743 12.69 299.943 11.73C301.203 10.71 303.363 10.2 306.423 10.2C309.543 10.2 311.103 10.56 311.103 11.28C311.103 11.76 310.563 12.63 309.483 13.89C308.463 15.15 306.933 17.34 304.893 20.46C302.853 23.58 300.483 27.3 297.783 31.62C295.143 35.94 292.833 39.75 290.853 43.05C288.873 46.35 286.533 50.28 283.833 54.84C281.193 59.34 279.633 61.98 279.153 62.76C273.513 72.42 266.013 77.25 256.653 77.25ZM277.887 79.23C277.887 78.75 278.217 78.45 278.877 78.33C283.077 78.33 287.547 76.98 292.287 74.28C297.087 71.58 299.487 68.76 299.487 65.82C299.487 63.66 298.047 61.59 295.167 59.61C292.287 57.57 290.847 55.44 290.847 53.22C290.847 49.92 292.947 47.07 297.147 44.67C301.347 42.21 306.117 40.98 311.457 40.98C312.417 40.98 313.047 41.01 313.347 41.07C313.647 41.07 313.917 40.89 314.157 40.53C314.457 40.11 314.787 39.66 315.147 39.18C315.507 38.7 316.167 38.28 317.127 37.92C318.087 37.5 319.227 37.29 320.547 37.29C323.607 37.29 325.137 37.74 325.137 38.64C325.137 38.82 325.107 38.97 325.047 39.09C324.087 39.93 322.377 42 319.917 45.3C317.457 48.6 315.657 51.69 314.517 54.57C314.277 55.11 313.737 55.38 312.897 55.38C312.117 55.38 311.337 54.93 310.557 54.03C309.777 53.07 309.387 52.17 309.387 51.33C309.387 50.43 309.537 49.5 309.837 48.54C310.137 47.52 310.287 46.92 310.287 46.74C310.287 45.96 309.807 45.57 308.847 45.57C306.987 45.57 305.037 46.14 302.997 47.28C301.017 48.36 300.027 49.95 300.027 52.05C300.027 54.09 301.527 56.16 304.527 58.26C305.667 59.1 306.687 60.18 307.587 61.5C308.547 62.82 309.027 64.2 309.027 65.64C309.027 69.72 306.357 73.41 301.017 76.71C295.677 80.07 289.887 81.75 283.647 81.75C280.107 81.75 278.187 80.91 277.887 79.23Z"/>
</mask>
<path d="M19.56 77.16C9.66 77.16 4.71 72.12 4.71 62.04C4.71 59.1 5.4 55.53 6.78 51.33C8.22 47.13 10.32 42.78 13.08 38.28C15.84 33.72 18.96 29.49 22.44 25.59C25.92 21.69 30 18.48 34.68 15.96C39.36 13.44 44.07 12.18 48.81 12.18C51.03 12.18 52.74 12.45 53.94 12.99C55.14 13.47 55.77 13.71 55.83 13.71C55.95 13.71 56.7 13.41 58.08 12.81C59.52 12.21 61.2 11.91 63.12 11.91C65.1 11.91 66.09 12.48 66.09 13.62C66.09 14.7 64.92 17.1 62.58 20.82C60.3 24.54 57.54 28.11 54.3 31.53C51.06 34.95 48.48 36.66 46.56 36.66C46.32 36.72 46.02 36.75 45.66 36.75C44.52 36.75 43.95 36.42 43.95 35.76C43.95 35.64 44.37 34.98 45.21 33.78C46.05 32.52 46.89 30.87 47.73 28.83C48.57 26.73 48.99 25.05 48.99 23.79C48.99 22.53 48.93 21.63 48.81 21.09C48.69 20.55 48.27 19.92 47.55 19.2C46.89 18.48 45.96 18.12 44.76 18.12C41.52 18.12 37.65 20.58 33.15 25.5C28.71 30.42 24.87 36.21 21.63 42.87C18.45 49.47 16.86 55.08 16.86 59.7C16.86 65.22 19.38 67.98 24.42 67.98C30.42 67.98 36.24 64.11 41.88 56.37C42.12 55.89 42.36 55.65 42.6 55.65C42.9 55.65 43.11 55.68 43.23 55.74C43.41 55.74 43.62 55.92 43.86 56.28C44.16 56.58 44.31 57.18 44.31 58.08C44.31 58.98 43.68 60.48 42.42 62.58C41.22 64.68 39.6 66.84 37.56 69.06C35.52 71.28 32.88 73.2 29.64 74.82C26.4 76.38 23.04 77.16 19.56 77.16ZM49.5701 76.17C48.1901 75.51 47.0501 74.34 46.1501 72.66C45.3101 70.98 44.8901 68.91 44.8901 66.45C44.8901 62.61 46.1201 58.59 48.5801 54.39C51.1001 50.19 54.6101 46.59 59.1101 43.59C63.6701 40.59 68.4701 39.09 73.5101 39.09C75.8501 39.09 77.8001 39.72 79.3601 40.98C80.9201 42.24 81.7001 43.5 81.7001 44.76C81.7001 45.96 81.5201 46.92 81.1601 47.64C80.8001 48.36 80.6201 48.84 80.6201 49.08C80.6201 49.8 81.1901 50.16 82.3301 50.16C83.4701 50.16 84.3401 50.01 84.9401 49.71C85.5401 49.41 85.9001 49.26 86.0201 49.26C86.5001 49.26 86.7401 49.89 86.7401 51.15C86.7401 52.35 86.1401 53.79 84.9401 55.47C83.7401 57.09 82.2701 58.29 80.5301 59.07C80.2901 59.55 79.9601 60.24 79.5401 61.14C79.1201 61.98 78.1301 63.48 76.5701 65.64C75.0101 67.74 73.3301 69.63 71.5301 71.31C69.7901 72.93 67.4501 74.4 64.5101 75.72C61.6301 77.1 58.9901 77.79 56.5901 77.79C54.1901 77.79 51.8501 77.25 49.5701 76.17ZM69.6401 60.69C69.6401 60.21 69.3701 59.97 68.8301 59.97C68.0501 59.97 67.1501 60.15 66.1301 60.51C65.1701 60.87 64.6301 61.05 64.5101 61.05C64.1501 61.05 63.9701 60.78 63.9701 60.24C63.9701 57.9 64.8101 55.89 66.4901 54.21C67.1501 53.49 68.1101 52.89 69.3701 52.41C70.6301 51.87 71.5901 51.27 72.2501 50.61C72.9701 49.89 73.3301 48.69 73.3301 47.01C73.3301 44.97 72.2501 43.95 70.0901 43.95C66.2501 43.95 62.5901 46.68 59.1101 52.14C55.6301 57.54 53.8901 62.37 53.8901 66.63C53.8901 68.07 54.3701 69.3 55.3301 70.32C56.3501 71.34 57.5501 71.85 58.9301 71.85C62.0501 71.85 64.6001 70.56 66.5801 67.98C68.6201 65.34 69.6401 62.91 69.6401 60.69ZM105.8 78.87C104.12 78.87 103.28 78.48 103.28 77.7L103.46 77.16C107.06 71.76 110.15 66.57 112.73 61.59C115.31 56.55 116.6 53.28 116.6 51.78C116.6 51.3 116.48 50.94 116.24 50.7C116 50.4 115.64 50.22 115.16 50.16C112.82 50.16 109.67 51.66 105.71 54.66C101.81 57.66 98.3604 60.75 95.3604 63.93C92.4204 67.11 90.2304 69.72 88.7904 71.76C87.3504 73.74 85.1904 74.73 82.3104 74.73C80.7504 74.73 79.9704 74.34 79.9704 73.56C79.9704 72 82.9104 66.51 88.7904 57.09C94.6704 47.61 98.5704 42.51 100.49 41.79C101.51 41.19 102.8 40.89 104.36 40.89C105.98 40.89 106.79 41.22 106.79 41.88C106.79 42.48 106.07 43.83 104.63 45.93C103.19 48.03 102.47 49.38 102.47 49.98C102.59 50.46 102.83 50.7 103.19 50.7C103.61 50.7 103.97 50.58 104.27 50.34C113.15 43.44 120.23 39.99 125.51 39.99C127.73 39.99 128.84 41.28 128.84 43.86C128.84 45.54 127.58 49.17 125.06 54.75C122.6 60.33 119.45 65.76 115.61 71.04C111.83 76.26 108.56 78.87 105.8 78.87ZM169.191 17.49L173.601 17.31C174.201 17.31 174.501 17.43 174.501 17.67C174.501 17.91 174.441 18.21 174.321 18.57C174.201 18.93 173.931 19.38 173.511 19.92C173.151 20.46 172.701 20.94 172.161 21.36C170.721 22.5 168.921 23.07 166.761 23.07C164.661 23.07 163.101 23.13 162.081 23.25C161.121 23.37 160.281 23.67 159.561 24.15C158.841 24.63 158.361 24.99 158.121 25.23C157.881 25.47 157.461 26.07 156.861 27.03C156.261 27.99 155.841 28.65 155.601 29.01C152.421 33.45 147.261 41.82 140.121 54.12C133.041 66.42 128.631 75.93 126.891 82.65C126.711 83.25 126.141 83.55 125.181 83.55C124.281 83.55 123.021 82.77 121.401 81.21C119.781 79.65 118.971 78.06 118.971 76.44C118.971 74.82 121.401 69.99 126.261 61.95C131.181 53.91 136.101 46.02 141.021 38.28C145.941 30.48 148.401 26.16 148.401 25.32C148.401 24.42 148.041 23.88 147.321 23.7C146.601 23.46 145.341 23.34 143.541 23.34H140.571C139.791 23.34 139.401 22.98 139.401 22.26C139.401 21.54 139.731 20.79 140.391 20.01C141.111 19.17 142.161 18.45 143.541 17.85C144.981 17.25 146.421 16.65 147.861 16.05C149.361 15.45 151.281 14.1 153.621 12C156.021 9.9 158.421 7.2 160.821 3.9C162.321 1.86 164.901 0.839995 168.561 0.839995C169.821 0.839995 170.451 1.22999 170.451 2.01C170.451 2.49 169.101 4.68 166.401 8.58C163.701 12.48 162.351 14.94 162.351 15.96C162.351 16.92 163.251 17.4 165.051 17.4C165.771 17.46 167.151 17.49 169.191 17.49ZM159.076 71.85L159.256 69.96C159.256 69.48 159.076 69.24 158.716 69.24C158.176 69.24 157.066 70.02 155.386 71.58C153.766 73.14 151.696 74.7 149.176 76.26C146.716 77.88 144.226 78.69 141.706 78.69C139.246 78.69 138.016 76.86 138.016 73.2C138.016 68.64 139.996 63.39 143.956 57.45C145.996 54.45 148.336 51.69 150.976 49.17C153.676 46.59 156.946 44.49 160.786 42.87C164.626 41.19 168.646 40.35 172.846 40.35C175.066 40.35 176.956 40.95 178.516 42.15C180.076 43.29 180.856 44.73 180.856 46.47C180.856 48.15 180.346 48.99 179.326 48.99C178.786 48.99 178.066 48.66 177.166 48C175.486 46.86 172.846 46.29 169.246 46.29C164.506 46.29 160.006 48.45 155.746 52.77C151.546 57.03 149.446 61.26 149.446 65.46C149.446 66 149.596 66.51 149.896 66.99C150.256 67.47 150.736 67.71 151.336 67.71C153.136 67.71 155.446 66.48 158.266 64.02C161.086 61.5 163.846 57.9 166.546 53.22C166.726 52.68 167.386 52.17 168.526 51.69C169.666 51.21 171.016 50.97 172.576 50.97C174.796 51.15 175.906 51.63 175.906 52.41C175.906 52.47 175.666 52.86 175.186 53.58C174.766 54.24 173.986 55.47 172.846 57.27C171.706 59.07 170.086 62.04 167.986 66.18C165.946 70.26 164.746 73.5 164.386 75.9C164.326 76.62 164.026 76.98 163.486 76.98C160.546 76.98 159.076 75.27 159.076 71.85ZM200.788 42.15L202.318 42.24C203.338 42.24 204.148 41.73 204.748 40.71C205.228 39.39 206.998 38.76 210.058 38.82C213.118 38.82 214.648 39.45 214.648 40.71C214.648 40.89 213.958 41.67 212.578 43.05C211.198 44.43 209.518 46.41 207.538 48.99C205.558 51.51 204.028 54.06 202.948 56.64C202.828 57 202.348 57.18 201.508 57.18C200.728 57.18 200.098 56.82 199.618 56.1C199.138 55.32 198.898 54.51 198.898 53.67C198.898 52.77 198.988 51.99 199.168 51.33C199.408 50.67 199.528 50.19 199.528 49.89C199.528 48.75 198.898 48.18 197.638 48.18C194.158 48.18 191.068 50.19 188.368 54.21C185.668 58.17 184.318 61.8 184.318 65.1C184.318 69.48 186.448 71.67 190.708 71.67C193.288 71.67 195.538 71.07 197.458 69.87C197.878 69.51 198.298 69.33 198.718 69.33C199.378 69.33 199.708 69.66 199.708 70.32C199.708 71.88 198.298 73.68 195.478 75.72C192.658 77.82 189.268 78.87 185.308 78.87C181.408 78.87 178.708 77.88 177.208 75.9C175.768 73.98 175.048 71.85 175.048 69.51C175.048 67.11 175.678 64.41 176.938 61.41C178.258 58.41 179.968 55.47 182.068 52.59C184.228 49.65 186.988 47.19 190.348 45.21C193.708 43.17 197.188 42.15 200.788 42.15ZM251.105 17.49L255.515 17.31C256.115 17.31 256.415 17.43 256.415 17.67C256.415 17.91 256.355 18.21 256.235 18.57C256.115 18.93 255.845 19.38 255.425 19.92C255.065 20.46 254.615 20.94 254.075 21.36C252.635 22.5 250.835 23.07 248.675 23.07C246.575 23.07 245.015 23.13 243.995 23.25C243.035 23.37 242.195 23.67 241.475 24.15C240.755 24.63 240.275 24.99 240.035 25.23C239.795 25.47 239.375 26.07 238.775 27.03C238.175 27.99 237.755 28.65 237.515 29.01C234.335 33.45 229.175 41.82 222.035 54.12C214.955 66.42 210.545 75.93 208.805 82.65C208.625 83.25 208.055 83.55 207.095 83.55C206.195 83.55 204.935 82.77 203.315 81.21C201.695 79.65 200.885 78.06 200.885 76.44C200.885 74.82 203.315 69.99 208.175 61.95C213.095 53.91 218.015 46.02 222.935 38.28C227.855 30.48 230.315 26.16 230.315 25.32C230.315 24.42 229.955 23.88 229.235 23.7C228.515 23.46 227.255 23.34 225.455 23.34H222.485C221.705 23.34 221.315 22.98 221.315 22.26C221.315 21.54 221.645 20.79 222.305 20.01C223.025 19.17 224.075 18.45 225.455 17.85C226.895 17.25 228.335 16.65 229.775 16.05C231.275 15.45 233.195 14.1 235.535 12C237.935 9.9 240.335 7.2 242.735 3.9C244.235 1.86 246.815 0.839995 250.475 0.839995C251.735 0.839995 252.365 1.22999 252.365 2.01C252.365 2.49 251.015 4.68 248.315 8.58C245.615 12.48 244.265 14.94 244.265 15.96C244.265 16.92 245.165 17.4 246.965 17.4C247.685 17.46 249.065 17.49 251.105 17.49ZM256.653 77.25C252.333 77.25 248.733 76.23 245.853 74.19C243.033 72.15 241.623 69.27 241.623 65.55C241.623 63.15 242.793 59.61 245.133 54.93C247.533 50.19 250.773 44.4 254.853 37.56C258.993 30.72 261.933 25.56 263.673 22.08C265.473 18.54 266.373 15.66 266.373 13.44C266.373 12.84 266.553 12.36 266.913 12C267.753 11.16 270.633 10.74 275.553 10.74C278.793 10.74 280.413 11.37 280.413 12.63C280.413 13.23 280.203 13.74 279.783 14.16C276.483 18.78 271.413 27 264.573 38.82C257.733 50.64 254.313 58.17 254.313 61.41C254.313 66.15 256.473 68.52 260.793 68.52C264.693 68.52 267.723 67.5 269.883 65.46C271.503 63.84 272.853 62.16 273.933 60.42C276.333 56.76 279.453 51.03 283.293 43.23C287.133 35.37 290.553 28.41 293.553 22.35C296.613 16.23 298.743 12.69 299.943 11.73C301.203 10.71 303.363 10.2 306.423 10.2C309.543 10.2 311.103 10.56 311.103 11.28C311.103 11.76 310.563 12.63 309.483 13.89C308.463 15.15 306.933 17.34 304.893 20.46C302.853 23.58 300.483 27.3 297.783 31.62C295.143 35.94 292.833 39.75 290.853 43.05C288.873 46.35 286.533 50.28 283.833 54.84C281.193 59.34 279.633 61.98 279.153 62.76C273.513 72.42 266.013 77.25 256.653 77.25ZM277.887 79.23C277.887 78.75 278.217 78.45 278.877 78.33C283.077 78.33 287.547 76.98 292.287 74.28C297.087 71.58 299.487 68.76 299.487 65.82C299.487 63.66 298.047 61.59 295.167 59.61C292.287 57.57 290.847 55.44 290.847 53.22C290.847 49.92 292.947 47.07 297.147 44.67C301.347 42.21 306.117 40.98 311.457 40.98C312.417 40.98 313.047 41.01 313.347 41.07C313.647 41.07 313.917 40.89 314.157 40.53C314.457 40.11 314.787 39.66 315.147 39.18C315.507 38.7 316.167 38.28 317.127 37.92C318.087 37.5 319.227 37.29 320.547 37.29C323.607 37.29 325.137 37.74 325.137 38.64C325.137 38.82 325.107 38.97 325.047 39.09C324.087 39.93 322.377 42 319.917 45.3C317.457 48.6 315.657 51.69 314.517 54.57C314.277 55.11 313.737 55.38 312.897 55.38C312.117 55.38 311.337 54.93 310.557 54.03C309.777 53.07 309.387 52.17 309.387 51.33C309.387 50.43 309.537 49.5 309.837 48.54C310.137 47.52 310.287 46.92 310.287 46.74C310.287 45.96 309.807 45.57 308.847 45.57C306.987 45.57 305.037 46.14 302.997 47.28C301.017 48.36 300.027 49.95 300.027 52.05C300.027 54.09 301.527 56.16 304.527 58.26C305.667 59.1 306.687 60.18 307.587 61.5C308.547 62.82 309.027 64.2 309.027 65.64C309.027 69.72 306.357 73.41 301.017 76.71C295.677 80.07 289.887 81.75 283.647 81.75C280.107 81.75 278.187 80.91 277.887 79.23Z" fill="#FE810E"/>
<path d="M6.78 51.33L2.05027 49.7084C2.04333 49.7286 2.03652 49.7489 2.02984 49.7692L6.78 51.33ZM13.08 38.28L17.3422 40.8941C17.3473 40.8858 17.3524 40.8774 17.3575 40.869L13.08 38.28ZM53.94 12.99L51.8882 17.5496C51.9526 17.5786 52.0175 17.6062 52.0831 17.6324L53.94 12.99ZM58.08 12.81L56.1569 8.19461C56.1333 8.20444 56.1098 8.21445 56.0864 8.22464L58.08 12.81ZM62.58 20.82L58.3477 18.1577C58.3374 18.1742 58.3271 18.1906 58.317 18.2072L62.58 20.82ZM54.3 31.53L50.6702 28.0913L50.6702 28.0913L54.3 31.53ZM46.56 36.66V31.66C46.1512 31.66 45.7439 31.7101 45.3473 31.8093L46.56 36.66ZM45.21 33.78L49.3062 36.6473C49.3279 36.6163 49.3492 36.585 49.3703 36.5535L45.21 33.78ZM47.73 28.83L52.3534 30.7337C52.3598 30.7182 52.3661 30.7026 52.3724 30.687L47.73 28.83ZM48.81 21.09L43.9291 22.1746L43.9291 22.1747L48.81 21.09ZM47.55 19.2L43.8642 22.5786C43.9132 22.632 43.9633 22.6843 44.0145 22.7355L47.55 19.2ZM33.15 25.5L29.4605 22.1255C29.453 22.1337 29.4455 22.1419 29.438 22.1502L33.15 25.5ZM21.63 42.87L17.1338 40.6827C17.1311 40.6883 17.1283 40.694 17.1256 40.6997L21.63 42.87ZM41.88 56.37L45.921 59.3146C46.0841 59.0908 46.2283 58.8538 46.3521 58.6061L41.88 56.37ZM43.23 55.74L40.9939 60.2121C41.6882 60.5593 42.4538 60.74 43.23 60.74V55.74ZM43.86 56.28L39.6997 59.0535C39.8824 59.3275 40.0916 59.5827 40.3245 59.8155L43.86 56.28ZM42.42 62.58L38.1325 60.0075C38.1143 60.0379 38.0964 60.0685 38.0788 60.0993L42.42 62.58ZM37.56 69.06L41.2416 72.4431L41.2416 72.4431L37.56 69.06ZM29.64 74.82L31.8091 79.325C31.8315 79.3142 31.8538 79.3033 31.8761 79.2921L29.64 74.82ZM19.56 72.16C15.4038 72.16 13.1998 71.1085 11.9897 69.8765C10.7633 68.6277 9.71 66.3317 9.71 62.04H-0.289999C-0.289999 67.8283 1.13169 73.0923 4.85526 76.8835C8.59517 80.6915 13.8162 82.16 19.56 82.16V72.16ZM9.71 62.04C9.71 59.8257 10.241 56.8143 11.5302 52.8908L2.02984 49.7692C0.558994 54.2457 -0.289999 58.3743 -0.289999 62.04H9.71ZM11.5097 52.9516C12.8109 49.1565 14.7391 45.1383 17.3422 40.8941L8.81781 35.6659C5.90088 40.4217 3.62907 45.1035 2.05027 49.7084L11.5097 52.9516ZM17.3575 40.869C19.9615 36.5667 22.8993 32.5851 26.1707 28.9189L18.7093 22.2611C15.0207 26.3949 11.7185 30.8733 8.8025 35.691L17.3575 40.869ZM26.1707 28.9189C29.2566 25.4606 32.8741 22.6112 37.0505 20.3624L32.3095 11.5576C27.1259 14.3488 22.5834 17.9194 18.7093 22.2611L26.1707 28.9189ZM37.0505 20.3624C41.0918 18.1863 44.9938 17.18 48.81 17.18V7.18C43.1462 7.18 37.6282 8.69371 32.3095 11.5576L37.0505 20.3624ZM48.81 17.18C50.744 17.18 51.6305 17.4336 51.8882 17.5496L55.9918 8.43039C53.8495 7.46636 51.316 7.18 48.81 7.18V17.18ZM52.0831 17.6324C52.69 17.8752 53.1782 18.0674 53.5325 18.2024C53.7045 18.2679 53.8799 18.3334 54.0355 18.3875C54.1076 18.4125 54.2259 18.4529 54.3603 18.4927C54.4244 18.5117 54.5463 18.5468 54.6979 18.5815C54.7347 18.5899 55.2169 18.71 55.83 18.71V8.71C56.0287 8.71 56.193 8.72195 56.3065 8.73288C56.4239 8.7442 56.523 8.75801 56.5975 8.76969C56.7426 8.79244 56.8578 8.81725 56.9262 8.83289C56.9996 8.84967 57.0593 8.86516 57.0999 8.87611C57.1419 8.88744 57.1764 8.8974 57.2012 8.90475C57.2493 8.91899 57.2836 8.93014 57.2977 8.9348C57.3137 8.94005 57.3221 8.94299 57.3207 8.94251C57.3038 8.93662 57.2355 8.91205 57.0925 8.85756C56.8169 8.75256 56.39 8.58483 55.797 8.34761L52.0831 17.6324ZM55.83 18.71C56.5767 18.71 57.1754 18.5319 57.2091 18.5228C57.3981 18.4717 57.5617 18.4173 57.6681 18.3806C57.8893 18.3043 58.1237 18.2137 58.3395 18.1274C58.7838 17.9497 59.3698 17.7014 60.0736 17.3953L56.0864 8.22464C55.4102 8.51862 54.9312 8.72033 54.6256 8.84261C54.4663 8.90633 54.4045 8.92816 54.4082 8.92688C54.4132 8.92514 54.4308 8.91913 54.4583 8.91044C54.4842 8.90227 54.5335 8.8871 54.6 8.86911C54.6601 8.85286 54.778 8.82238 54.9329 8.79317C55.0126 8.77813 55.1241 8.75922 55.2589 8.74336C55.3877 8.72821 55.5861 8.71 55.83 8.71V18.71ZM60.0031 17.4254C60.7106 17.1306 61.7122 16.91 63.12 16.91V6.91C60.6878 6.91 58.3294 7.28942 56.1569 8.19461L60.0031 17.4254ZM63.12 16.91C63.3898 16.91 63.4945 16.9306 63.477 16.9273C63.4683 16.9256 63.2144 16.8789 62.8527 16.6706C62.4599 16.4445 61.958 16.0347 61.5772 15.3771C61.1962 14.7189 61.09 14.0775 61.09 13.62H71.09C71.09 11.2569 69.8832 9.17946 67.8423 8.00438C66.218 7.06917 64.426 6.91 63.12 6.91V16.91ZM61.09 13.62C61.09 13.0991 61.2079 12.8562 61.1313 13.0841C61.0769 13.246 60.9545 13.5541 60.7181 14.039C60.2458 15.0078 59.4745 16.3664 58.3477 18.1577L66.8123 23.4823C68.0255 21.5536 69.0092 19.8521 69.7069 18.421C70.0555 17.7059 70.3719 16.979 70.6099 16.2709C70.8258 15.6288 71.09 14.6809 71.09 13.62H61.09ZM58.317 18.2072C56.2326 21.6081 53.6899 24.9039 50.6702 28.0913L57.9298 34.9687C61.3902 31.3161 64.3674 27.4719 66.843 23.4328L58.317 18.2072ZM50.6702 28.0913C49.1907 29.653 48.0285 30.6426 47.1727 31.2098C46.2451 31.8246 46.1044 31.66 46.56 31.66V41.66C48.9356 41.66 51.0449 40.6404 52.6973 39.5452C54.4215 38.4024 56.1693 36.8269 57.9298 34.9687L50.6702 28.0913ZM45.3473 31.8093C45.5066 31.7695 45.6165 31.7564 45.6575 31.7523C45.7008 31.748 45.7046 31.75 45.66 31.75V41.75C46.2613 41.75 47.0012 41.7036 47.7727 41.5107L45.3473 31.8093ZM45.66 31.75C45.4086 31.75 46.0353 31.6848 46.8827 32.1754C47.3819 32.4644 47.96 32.9515 48.39 33.6983C48.8196 34.4446 48.95 35.1872 48.95 35.76H38.95C38.95 37.8696 40.0393 39.7684 41.8723 40.8296C43.2897 41.6502 44.7714 41.75 45.66 41.75V31.75ZM48.95 35.76C48.95 36.1073 48.9133 36.3931 48.8799 36.5887C48.8455 36.7903 48.8039 36.9573 48.7697 37.0793C48.7035 37.316 48.6332 37.4961 48.5931 37.5934C48.5136 37.7865 48.444 37.9152 48.4311 37.9393C48.3986 37.9996 48.4023 37.9866 48.4833 37.8594C48.6336 37.6231 48.8988 37.2293 49.3062 36.6473L41.1139 30.9127C40.6812 31.5307 40.3164 32.0669 40.0467 32.4906C39.9177 32.6934 39.7639 32.9429 39.6264 33.1982C39.561 33.3197 39.452 33.5292 39.3463 33.7859C39.3248 33.838 38.95 34.668 38.95 35.76H48.95ZM49.3703 36.5535C50.4549 34.9265 51.4394 32.9536 52.3534 30.7337L43.1066 26.9262C42.3407 28.7864 41.6451 30.1135 41.0498 31.0065L49.3703 36.5535ZM52.3724 30.687C53.2911 28.3901 53.99 26.0047 53.99 23.79H43.99C43.99 24.0953 43.8489 25.0698 43.0876 26.973L52.3724 30.687ZM53.99 23.79C53.99 22.5078 53.9402 21.1268 53.6909 20.0053L43.9291 22.1747C43.9107 22.0922 43.9339 22.1692 43.9561 22.5026C43.9765 22.8082 43.99 23.2311 43.99 23.79H53.99ZM53.6909 20.0054C53.2544 18.041 51.9941 16.573 51.0855 15.6645L44.0145 22.7355C44.2157 22.9368 44.2675 23.0202 44.2448 22.986C44.2301 22.964 44.1821 22.8893 44.124 22.7634C44.0658 22.6375 43.9878 22.4391 43.9291 22.1746L53.6909 20.0054ZM51.2358 15.8214C49.4183 13.8386 47.0164 13.12 44.76 13.12V23.12C44.865 23.12 44.7672 23.1359 44.5525 23.0528C44.3158 22.9612 44.0652 22.7979 43.8642 22.5786L51.2358 15.8214ZM44.76 13.12C41.8728 13.12 39.1641 14.2078 36.7452 15.7453C34.3124 17.2918 31.8859 19.4736 29.4605 22.1255L36.8395 28.8745C38.9141 26.6064 40.6726 25.0982 42.1098 24.1847C43.5609 23.2622 44.4072 23.12 44.76 23.12V13.12ZM29.438 22.1502C24.6488 27.4571 20.5555 33.6492 17.1338 40.6827L26.1262 45.0573C29.1845 38.7708 32.7712 33.3829 36.862 28.8498L29.438 22.1502ZM17.1256 40.6997C13.7901 47.6224 11.86 54.0152 11.86 59.7H21.86C21.86 56.1448 23.1099 51.3176 26.1344 45.0403L17.1256 40.6997ZM11.86 59.7C11.86 63.1238 12.6318 66.6246 15.0576 69.2813C17.562 72.0243 21.0063 72.98 24.42 72.98V62.98C22.7937 62.98 22.458 62.5557 22.4424 62.5387C22.3482 62.4354 21.86 61.7962 21.86 59.7H11.86ZM24.42 72.98C32.7865 72.98 39.9093 67.5646 45.921 59.3146L37.839 53.4254C32.5707 60.6554 28.0535 62.98 24.42 62.98V72.98ZM46.3521 58.6061C46.3404 58.6295 46.2987 58.7109 46.2203 58.8285C46.1447 58.9418 46.0016 59.1395 45.7755 59.3655C45.3506 59.7905 44.2738 60.65 42.6 60.65V50.65C40.6862 50.65 39.3694 51.6295 38.7045 52.2945C38.0497 52.9492 37.6455 53.6586 37.4079 54.1339L46.3521 58.6061ZM42.6 60.65C42.5934 60.65 42.5636 60.6499 42.5145 60.647C42.4668 60.6442 42.3844 60.6378 42.2754 60.6222C42.1692 60.6071 42.0071 60.5789 41.8075 60.5244C41.6131 60.4714 41.3258 60.3781 40.9939 60.2121L45.4661 51.2679C44.2064 50.638 42.9438 50.65 42.6 50.65V60.65ZM43.23 60.74C41.6305 60.74 40.6042 59.959 40.2685 59.6713C39.8881 59.3452 39.7079 59.0657 39.6997 59.0535L48.0203 53.5065C47.7721 53.1343 47.3669 52.5848 46.7765 52.0787C46.2308 51.611 45.0095 50.74 43.23 50.74V60.74ZM40.3245 59.8155C39.6051 59.0962 39.3971 58.3689 39.3468 58.1677C39.2889 57.9362 39.31 57.8713 39.31 58.08H49.31C49.31 57.3887 49.2561 56.5738 49.0482 55.7423C48.8479 54.9411 48.4149 53.7638 47.3955 52.7445L40.3245 59.8155ZM39.31 58.08C39.31 57.7495 39.3635 57.5683 39.3557 57.598C39.3517 57.6134 39.3204 57.7229 39.2276 57.9438C39.0383 58.3944 38.6946 59.0707 38.1325 60.0075L46.7075 65.1525C47.4054 63.9893 48.0067 62.8656 48.4474 61.8162C48.8456 60.8681 49.31 59.5318 49.31 58.08H39.31ZM38.0788 60.0993C37.1031 61.8068 35.7246 63.6678 33.8784 65.6769L41.2416 72.4431C43.4754 70.0122 45.337 67.5532 46.7612 65.0607L38.0788 60.0993ZM33.8784 65.6769C32.3237 67.3687 30.2066 68.9465 27.4039 70.3479L31.8761 79.2921C35.5534 77.4535 38.7163 75.1912 41.2416 72.4431L33.8784 65.6769ZM27.4709 70.315C24.8844 71.5604 22.2636 72.16 19.56 72.16V82.16C23.8164 82.16 27.9156 81.1996 31.8091 79.325L27.4709 70.315ZM49.5701 76.17L47.4128 80.6807C47.4184 80.6834 47.424 80.686 47.4296 80.6887L49.5701 76.17ZM46.1501 72.66L41.6779 74.8961C41.6989 74.938 41.7205 74.9797 41.7427 75.0211L46.1501 72.66ZM48.5801 54.39L44.2926 51.8175C44.2835 51.8326 44.2746 51.8478 44.2657 51.863L48.5801 54.39ZM59.1101 43.59L56.362 39.4129C56.3535 39.4185 56.345 39.4241 56.3366 39.4297L59.1101 43.59ZM81.1601 47.64L76.6879 45.4039L76.6879 45.4039L81.1601 47.64ZM84.9401 49.71L87.1761 54.1821L87.1761 54.1821L84.9401 49.71ZM84.9401 55.47L88.9579 58.4461C88.975 58.423 88.992 58.3997 89.0087 58.3762L84.9401 55.47ZM80.5301 59.07L78.4848 54.5075C77.4316 54.9796 76.5741 55.8016 76.0579 56.8339L80.5301 59.07ZM79.5401 61.14L84.0122 63.3761C84.0324 63.3358 84.052 63.2952 84.071 63.2544L79.5401 61.14ZM76.5701 65.64L80.5838 68.6216C80.5971 68.6037 80.6104 68.5856 80.6235 68.5675L76.5701 65.64ZM71.5301 71.31L74.9372 74.9695L74.9417 74.9653L71.5301 71.31ZM64.5101 75.72L62.4621 71.1587C62.4244 71.1756 62.3868 71.193 62.3495 71.2109L64.5101 75.72ZM66.1301 60.51L64.466 55.795C64.4354 55.8059 64.4049 55.817 64.3745 55.8284L66.1301 60.51ZM66.4901 54.21L70.0256 57.7455C70.0768 57.6943 70.1269 57.642 70.1759 57.5886L66.4901 54.21ZM69.3701 52.41L71.1501 57.0824C71.2138 57.0582 71.277 57.0326 71.3397 57.0057L69.3701 52.41ZM59.1101 52.14L63.3129 54.8485C63.3175 54.8415 63.322 54.8344 63.3265 54.8274L59.1101 52.14ZM55.3301 70.32L51.6891 73.7468C51.7237 73.7836 51.7588 73.8198 51.7945 73.8555L55.3301 70.32ZM66.5801 67.98L62.6237 64.9228C62.6203 64.9271 62.6169 64.9315 62.6135 64.9359L66.5801 67.98ZM51.7274 71.6593C51.5213 71.5608 51.0804 71.275 50.5575 70.2989L41.7427 75.0211C43.0198 77.405 44.8589 79.4592 47.4128 80.6807L51.7274 71.6593ZM50.6222 70.4239C50.2198 69.6191 49.8901 68.365 49.8901 66.45H39.8901C39.8901 69.455 40.4004 72.3409 41.6779 74.8961L50.6222 70.4239ZM49.8901 66.45C49.8901 63.7063 50.7651 60.5525 52.8945 56.917L44.2657 51.863C41.475 56.6275 39.8901 61.5137 39.8901 66.45H49.8901ZM52.8675 56.9625C54.9685 53.4609 57.9347 50.3828 61.8836 47.7503L56.3366 39.4297C51.2855 42.7972 47.2317 46.9191 44.2926 51.8175L52.8675 56.9625ZM61.8582 47.7671C65.6729 45.2574 69.5282 44.09 73.5101 44.09V34.09C67.412 34.09 61.6672 35.9226 56.362 39.4129L61.8582 47.7671ZM73.5101 44.09C74.9065 44.09 75.6918 44.4444 76.2184 44.8697L82.5018 37.0903C79.9084 34.9956 76.7936 34.09 73.5101 34.09V44.09ZM76.2184 44.8697C76.4526 45.0589 76.6136 45.2129 76.7199 45.3273C76.7722 45.3836 76.8083 45.4272 76.8317 45.4574C76.855 45.4876 76.8643 45.5026 76.8638 45.5018C76.8626 45.4998 76.8196 45.4299 76.7774 45.2934C76.7337 45.1521 76.7001 44.9693 76.7001 44.76H86.7001C86.7001 41.2795 84.5431 38.739 82.5018 37.0903L76.2184 44.8697ZM76.7001 44.76C76.7001 45.118 76.6726 45.3419 76.6507 45.4586C76.6288 45.5755 76.6215 45.5368 76.6879 45.4039L85.6322 49.8761C86.4677 48.2052 86.7001 46.3867 86.7001 44.76H76.7001ZM76.6879 45.4039C76.4684 45.8431 76.2491 46.316 76.0734 46.7844C75.9571 47.0947 75.6201 47.9967 75.6201 49.08H85.6201C85.6201 49.353 85.5953 49.5733 85.5732 49.7204C85.5505 49.8716 85.5239 49.9901 85.5045 50.0677C85.4847 50.1471 85.4669 50.2054 85.4562 50.2388C85.4452 50.273 85.4378 50.2927 85.4367 50.2956C85.4355 50.2989 85.4482 50.2651 85.4834 50.1868C85.5177 50.1107 85.5662 50.0081 85.6322 49.8761L76.6879 45.4039ZM75.6201 49.08C75.6201 51.0154 76.5274 52.9489 78.3776 54.1174C79.8407 55.0415 81.3951 55.16 82.3301 55.16V45.16C82.125 45.16 82.8244 45.0985 83.7175 45.6626C84.2356 45.9898 84.7703 46.5015 85.1489 47.2187C85.5199 47.9216 85.6201 48.5922 85.6201 49.08H75.6201ZM82.3301 55.16C83.774 55.16 85.5562 54.9921 87.1761 54.1821L82.704 45.2379C82.8353 45.1722 82.9315 45.1394 82.9759 45.1259C83.0205 45.1122 83.0278 45.1133 82.988 45.1202C82.9008 45.1352 82.6928 45.16 82.3301 45.16V55.16ZM87.1761 54.1821C87.2978 54.1213 87.3939 54.0748 87.4672 54.0404C87.5035 54.0234 87.5315 54.0107 87.5521 54.0015C87.5622 53.9969 87.5699 53.9936 87.5753 53.9912C87.5808 53.9889 87.5833 53.9878 87.5832 53.9879C87.5831 53.9879 87.5794 53.9894 87.5726 53.9921C87.5658 53.9948 87.5546 53.9992 87.5394 54.0049C87.512 54.0152 87.4555 54.0358 87.3765 54.0605C87.3033 54.0834 87.1658 54.124 86.9836 54.1619C86.8277 54.1944 86.4776 54.26 86.0201 54.26V44.26C85.1849 44.26 84.528 44.4738 84.3937 44.5157C84.131 44.5978 83.9006 44.6889 83.737 44.7571C83.4024 44.8966 83.0451 45.0673 82.704 45.2379L87.1761 54.1821ZM86.0201 54.26C84.9336 54.26 83.8675 53.8628 83.0426 53.141C82.3175 52.5066 82.0065 51.8245 81.8876 51.5125C81.6771 50.9598 81.7401 50.694 81.7401 51.15H91.7401C91.7401 50.346 91.683 49.1352 91.2325 47.9525C90.9937 47.3255 90.5327 46.4072 89.6276 45.6152C88.6227 44.7359 87.3466 44.26 86.0201 44.26V54.26ZM81.7401 51.15C81.7401 50.9241 81.7934 50.9219 81.6747 51.2069C81.5572 51.4889 81.3185 51.9379 80.8714 52.5638L89.0087 58.3762C90.4249 56.3936 91.7401 53.9059 91.7401 51.15H81.7401ZM80.9223 52.4939C80.2026 53.4655 79.3969 54.0986 78.4848 54.5075L82.5754 63.6325C85.1432 62.4814 87.2776 60.7145 88.9579 58.4461L80.9223 52.4939ZM76.0579 56.8339C75.7876 57.3747 75.4351 58.1128 75.0092 59.0256L84.071 63.2544C84.485 62.3672 84.7926 61.7253 85.0022 61.3061L76.0579 56.8339ZM75.0679 58.9039C74.8569 59.326 74.107 60.5106 72.5167 62.7125L80.6235 68.5675C82.1532 66.4494 83.3832 64.634 84.0122 63.3761L75.0679 58.9039ZM72.5564 62.6584C71.1652 64.5311 69.6846 66.193 68.1185 67.6547L74.9417 74.9653C76.9755 73.067 78.855 70.9489 80.5838 68.6216L72.5564 62.6584ZM68.123 67.6505C66.8977 68.7913 65.0682 69.9886 62.4621 71.1587L66.558 80.2813C69.832 78.8114 72.6825 77.0687 74.9372 74.9695L68.123 67.6505ZM62.3495 71.2109C59.9312 72.3697 58.0376 72.79 56.5901 72.79V82.79C59.9426 82.79 63.329 81.8303 66.6707 80.2291L62.3495 71.2109ZM56.5901 72.79C54.9683 72.79 53.3565 72.431 51.7105 71.6513L47.4296 80.6887C50.3436 82.069 53.4119 82.79 56.5901 82.79V72.79ZM74.6401 60.69C74.6401 59.5167 74.283 57.7673 72.7594 56.413C71.348 55.1584 69.7352 54.97 68.8301 54.97V64.97C68.4649 64.97 67.2572 64.9016 66.1158 63.887C64.8621 62.7727 64.6401 61.3833 64.6401 60.69H74.6401ZM68.8301 54.97C67.3108 54.97 65.8292 55.3139 64.466 55.795L67.7942 65.225C68.4709 64.9861 68.7894 64.97 68.8301 64.97V54.97ZM64.3745 55.8284C64.1496 55.9127 63.9571 55.9835 63.7952 56.0418C63.6316 56.1007 63.5098 56.143 63.4239 56.1716C63.3817 56.1857 63.3545 56.1943 63.3403 56.1987C63.3243 56.2037 63.334 56.2004 63.3632 56.1924C63.3787 56.1882 63.405 56.1812 63.4401 56.1727C63.4742 56.1644 63.527 56.1521 63.5942 56.1387C63.6582 56.1259 63.761 56.1068 63.8908 56.0899C63.9574 56.0812 64.0413 56.0717 64.1391 56.0642C64.2353 56.0568 64.3615 56.05 64.5101 56.05V66.05C65.0295 66.05 65.4399 65.9676 65.5553 65.9445C65.736 65.9083 65.8904 65.8684 65.9944 65.8401C66.2051 65.7826 66.4127 65.7163 66.5862 65.6584C66.9435 65.5393 67.3857 65.3791 67.8857 65.1916L64.3745 55.8284ZM64.5101 56.05C65.0481 56.05 65.7617 56.1531 66.5099 56.5272C67.2788 56.9117 67.865 57.4736 68.2653 58.074C68.9775 59.1422 68.9701 60.1124 68.9701 60.24H58.9701C58.9701 60.9076 59.0527 62.2828 59.9448 63.621C61.0755 65.317 62.8735 66.05 64.5101 66.05V56.05ZM68.9701 60.24C68.9701 59.2487 69.2672 58.504 70.0256 57.7455L62.9545 50.6745C60.353 53.276 58.9701 56.5513 58.9701 60.24H68.9701ZM70.1759 57.5886C70.1489 57.618 70.356 57.3849 71.1501 57.0824L67.5901 47.7376C65.8642 48.3951 64.1513 49.362 62.8043 50.8314L70.1759 57.5886ZM71.3397 57.0057C72.9347 56.3221 74.5171 55.4141 75.7856 54.1455L68.7145 47.0745C68.6631 47.1259 68.3255 47.4179 67.4005 47.8143L71.3397 57.0057ZM75.7856 54.1455C77.8959 52.0352 78.3301 49.1976 78.3301 47.01H68.3301C68.3301 47.2542 68.3168 47.4346 68.3012 47.5598C68.2855 47.6856 68.2695 47.7381 68.2709 47.7333C68.2746 47.721 68.3694 47.4196 68.7145 47.0745L75.7856 54.1455ZM78.3301 47.01C78.3301 45.1439 77.8222 42.8451 75.9532 41.0799C74.1378 39.3654 71.8718 38.95 70.0901 38.95V48.95C70.4683 48.95 69.8224 49.0446 69.087 48.3501C68.2979 47.6049 68.3301 46.8361 68.3301 47.01H78.3301ZM70.0901 38.95C63.621 38.95 58.6527 43.5548 54.8937 49.4526L63.3265 54.8274C66.5274 49.8052 68.8792 48.95 70.0901 48.95V38.95ZM54.9072 49.4315C51.1535 55.2562 48.8901 61.0376 48.8901 66.63H58.8901C58.8901 63.7024 60.1066 59.8238 63.3129 54.8485L54.9072 49.4315ZM48.8901 66.63C48.8901 69.3041 49.8294 71.7709 51.6891 73.7468L58.9711 66.8932C58.9332 66.8529 58.9165 66.8283 58.9114 66.8204C58.9067 66.813 58.907 66.8122 58.908 66.8148C58.9089 66.8172 58.9054 66.8096 58.9012 66.7859C58.8968 66.7615 58.8901 66.7115 58.8901 66.63H48.8901ZM51.7945 73.8555C53.7049 75.7659 56.1585 76.85 58.9301 76.85V66.85C58.8946 66.85 58.8863 66.8469 58.8984 66.8493C58.9113 66.8518 58.9307 66.8573 58.9508 66.8658C58.9705 66.8742 58.9762 66.8793 58.9662 66.8724C58.9553 66.8649 58.9209 66.8397 58.8656 66.7845L51.7945 73.8555ZM58.9301 76.85C63.6796 76.85 67.6671 74.7762 70.5466 71.0241L62.6135 64.9359C61.5331 66.3438 60.4205 66.85 58.9301 66.85V76.85ZM70.5365 71.0372C72.9288 67.9413 74.6401 64.4501 74.6401 60.69H64.6401C64.6401 61.3699 64.3114 62.7387 62.6237 64.9228L70.5365 71.0372ZM103.28 77.7L98.537 76.1189C98.367 76.6287 98.2804 77.1626 98.2804 77.7H103.28ZM103.46 77.16L99.3001 74.3865C99.0536 74.7563 98.8575 75.1573 98.717 75.5789L103.46 77.16ZM112.73 61.59L117.17 63.89C117.174 63.8828 117.177 63.8756 117.181 63.8684L112.73 61.59ZM116.24 50.7L112.336 53.8235C112.451 53.9675 112.574 54.1051 112.705 54.2355L116.24 50.7ZM115.16 50.16L115.781 45.1986C115.575 45.1729 115.368 45.16 115.16 45.16V50.16ZM105.71 54.66L102.691 50.6745C102.681 50.6819 102.672 50.6894 102.662 50.6969L105.71 54.66ZM95.3604 63.93L91.7234 60.4989C91.7119 60.5111 91.7004 60.5234 91.689 60.5357L95.3604 63.93ZM88.7904 71.76L92.8341 74.7009C92.8479 74.6818 92.8616 74.6627 92.8752 74.6434L88.7904 71.76ZM88.7904 57.09L93.0319 59.7376C93.0344 59.7335 93.0369 59.7295 93.0394 59.7255L88.7904 57.09ZM100.49 41.79L102.246 46.4716C102.516 46.3704 102.777 46.2459 103.025 46.0997L100.49 41.79ZM104.63 45.93L108.754 48.7576L108.754 48.7576L104.63 45.93ZM102.47 49.98H97.4704C97.4704 50.3888 97.5205 50.7961 97.6197 51.1927L102.47 49.98ZM104.27 50.34L101.203 46.3918C101.184 46.4063 101.165 46.4209 101.147 46.4357L104.27 50.34ZM125.06 54.75L120.504 52.6921C120.497 52.7057 120.491 52.7193 120.485 52.733L125.06 54.75ZM115.61 71.04L111.567 68.0991L111.561 68.1075L115.61 71.04ZM105.8 73.87C105.19 73.87 105.439 73.7744 106.016 74.0425C106.368 74.2061 106.979 74.5708 107.5 75.2958C108.056 76.0711 108.28 76.9404 108.28 77.7H98.2804C98.2804 78.8496 98.6097 80.0602 99.3763 81.1279C100.107 82.1455 101.032 82.7539 101.805 83.1125C103.222 83.7706 104.731 83.87 105.8 83.87V73.87ZM108.024 79.2811L108.204 78.7411L98.717 75.5789L98.537 76.1189L108.024 79.2811ZM107.621 79.9335C111.307 74.404 114.494 69.0558 117.17 63.89L108.291 59.29C105.807 64.0842 102.814 69.116 99.3001 74.3865L107.621 79.9335ZM117.181 63.8684C118.506 61.2795 119.555 59.0408 120.284 57.1924C120.932 55.5504 121.6 53.5713 121.6 51.78H111.6C111.6 51.4887 111.624 51.8946 110.982 53.5226C110.421 54.9442 109.534 56.8605 108.28 59.3116L117.181 63.8684ZM121.6 51.78C121.6 50.5293 121.284 48.6729 119.776 47.1645L112.705 54.2355C111.676 53.2071 111.6 52.0707 111.6 51.78H121.6ZM120.145 47.5765C118.894 46.013 117.202 45.3762 115.781 45.1986L114.54 55.1214C114.079 55.0638 113.107 54.787 112.336 53.8235L120.145 47.5765ZM115.16 45.16C111.038 45.16 106.727 47.617 102.691 50.6745L108.73 58.6455C112.614 55.703 114.603 55.16 115.16 55.16V45.16ZM102.662 50.6969C98.5776 53.8386 94.9261 57.1041 91.7234 60.4989L98.9974 67.3611C101.795 64.3959 105.043 61.4814 108.759 58.6231L102.662 50.6969ZM91.689 60.5357C88.6911 63.7783 86.331 66.5738 84.7056 68.8766L92.8752 74.6434C94.1298 72.8662 96.1496 70.4417 99.0318 67.3243L91.689 60.5357ZM84.7467 68.8191C84.4217 69.2661 83.9116 69.73 82.3104 69.73V79.73C86.4692 79.73 90.2791 78.2139 92.8341 74.7009L84.7467 68.8191ZM82.3104 69.73C81.7858 69.73 82.1366 69.638 82.7915 69.9654C83.1896 70.1644 83.7886 70.5659 84.2769 71.2984C84.786 72.0621 84.9704 72.8801 84.9704 73.56H74.9704C74.9704 74.6299 75.2522 75.7891 75.9564 76.8454C76.6397 77.8703 77.5312 78.5156 78.3193 78.9096C79.7541 79.627 81.275 79.73 82.3104 79.73V69.73ZM84.9704 73.56C84.9704 74.2808 84.7581 74.485 85.1364 73.5776C85.4158 72.9077 85.8833 71.9399 86.5831 70.6329C87.9756 68.0327 90.1128 64.414 93.0319 59.7376L84.5489 54.4424C81.5879 59.186 79.3151 63.0223 77.7676 65.9121C76.9975 67.3501 76.3625 68.636 75.9068 69.7287C75.5502 70.5838 74.9704 72.0592 74.9704 73.56H84.9704ZM93.0394 59.7255C95.9462 55.0391 98.2923 51.5525 100.097 49.1922C101.003 48.0073 101.705 47.1969 102.215 46.6868C102.845 46.0567 102.819 46.2567 102.246 46.4716L98.7348 37.1084C97.2017 37.6833 95.9685 38.7908 95.1436 39.6157C94.1987 40.5606 93.1975 41.7527 92.1536 43.1177C90.0585 45.8575 87.5146 49.6609 84.5414 54.4545L93.0394 59.7255ZM103.025 46.0997C103.07 46.0735 103.416 45.89 104.36 45.89V35.89C102.185 35.89 99.9509 36.3064 97.9553 37.4803L103.025 46.0997ZM104.36 45.89C104.98 45.89 104.803 45.9744 104.296 45.768C103.997 45.6459 103.355 45.3291 102.769 44.6131C102.114 43.813 101.79 42.8292 101.79 41.88H111.79C111.79 40.6008 111.365 39.3282 110.508 38.2807C109.72 37.3172 108.774 36.7941 108.069 36.507C106.753 35.9706 105.361 35.89 104.36 35.89V45.89ZM101.79 41.88C101.79 41.4766 101.848 41.1761 101.882 41.026C101.919 40.8654 101.955 40.7647 101.965 40.7388C101.981 40.6955 101.957 40.7684 101.839 40.9896C101.604 41.4296 101.181 42.1193 100.507 43.1024L108.754 48.7576C109.52 47.6407 110.177 46.6054 110.662 45.6954C110.904 45.2416 111.15 44.7332 111.346 44.2025C111.513 43.7489 111.79 42.9016 111.79 41.88H101.79ZM100.507 43.1024C99.7409 44.2193 99.0839 45.2546 98.5986 46.1646C98.3566 46.6184 98.1109 47.1268 97.9149 47.6575C97.7474 48.1111 97.4704 48.9583 97.4704 49.98H107.47C107.47 50.3834 107.413 50.6839 107.378 50.834C107.342 50.9946 107.305 51.0953 107.296 51.1212C107.28 51.1645 107.304 51.0916 107.422 50.8704C107.657 50.4304 108.08 49.7407 108.754 48.7576L100.507 43.1024ZM97.6197 51.1927C97.805 51.9339 98.2155 53.0662 99.2049 54.0555C100.324 55.1745 101.774 55.7 103.19 55.7V45.7C104.247 45.7 105.397 46.1055 106.276 46.9845C107.025 47.7338 107.256 48.5061 107.321 48.7673L97.6197 51.1927ZM103.19 55.7C104.633 55.7 106.123 55.261 107.394 54.2443L101.147 46.4357C101.452 46.1919 101.808 45.9955 102.194 45.8666C102.575 45.7395 102.92 45.7 103.19 45.7V55.7ZM107.338 54.2882C111.611 50.9683 115.302 48.5968 118.431 47.0723C121.596 45.53 123.91 44.99 125.51 44.99V34.99C121.831 34.99 117.965 36.175 114.05 38.0827C110.099 40.0081 105.81 42.8117 101.203 46.3918L107.338 54.2882ZM125.51 44.99C125.593 44.99 125.442 45.0031 125.161 44.8943C124.85 44.7737 124.503 44.5502 124.218 44.2187C123.676 43.5894 123.84 43.1721 123.84 43.86H133.84C133.84 41.9679 133.449 39.6156 131.798 37.6963C130.023 35.6332 127.604 34.99 125.51 34.99V44.99ZM123.84 43.86C123.84 43.7836 123.793 44.4121 123.172 46.2029C122.611 47.8185 121.733 49.969 120.504 52.6921L129.617 56.8079C130.907 53.951 131.92 51.4965 132.619 49.4821C133.257 47.6429 133.84 45.6164 133.84 43.86H123.84ZM120.485 52.733C118.179 57.965 115.212 63.0871 111.567 68.0991L119.654 73.9809C123.689 68.4329 127.022 62.695 129.636 56.767L120.485 52.733ZM111.561 68.1075C109.809 70.5262 108.35 72.0898 107.204 73.0047C106.019 73.9505 105.593 73.87 105.8 73.87V83.87C108.768 83.87 111.357 82.4845 113.442 80.8203C115.566 79.1252 117.632 76.7738 119.66 73.9725L111.561 68.1075ZM169.191 17.49V22.49C169.259 22.49 169.327 22.4886 169.395 22.4858L169.191 17.49ZM173.601 17.31V12.31C173.533 12.31 173.465 12.3114 173.397 12.3142L173.601 17.31ZM174.321 18.57L179.064 20.1512L179.064 20.1511L174.321 18.57ZM173.511 19.92L169.564 16.8503C169.489 16.9464 169.418 17.0452 169.35 17.1465L173.511 19.92ZM172.161 21.36L169.091 17.4132C169.08 17.422 169.068 17.4309 169.057 17.4398L172.161 21.36ZM162.081 23.25L161.496 18.2842C161.484 18.2857 161.472 18.2871 161.46 18.2886L162.081 23.25ZM159.561 24.15L162.334 28.3103L162.334 28.3102L159.561 24.15ZM156.861 27.03L152.621 24.38L152.621 24.38L156.861 27.03ZM155.601 29.01L159.666 31.9214C159.698 31.876 159.73 31.83 159.761 31.7835L155.601 29.01ZM140.121 54.12L135.796 51.6098C135.793 51.6151 135.79 51.6204 135.787 51.6257L140.121 54.12ZM126.891 82.65L131.68 84.0867C131.698 84.0259 131.715 83.9648 131.731 83.9033L126.891 82.65ZM121.401 81.21L117.932 84.8116L117.932 84.8116L121.401 81.21ZM126.261 61.95L121.996 59.3402C121.991 59.3479 121.986 59.3557 121.982 59.3634L126.261 61.95ZM141.021 38.28L145.24 40.9623C145.243 40.9573 145.247 40.9524 145.25 40.9475L141.021 38.28ZM147.321 23.7L145.74 28.4434C145.861 28.4839 145.984 28.5197 146.108 28.5507L147.321 23.7ZM140.391 20.01L136.594 16.756C136.587 16.7641 136.581 16.7722 136.574 16.7803L140.391 20.01ZM143.541 17.85L141.618 13.2346C141.594 13.2444 141.57 13.2545 141.547 13.2646L143.541 17.85ZM147.861 16.05L146.004 11.4076C145.982 11.4165 145.96 11.4255 145.938 11.4346L147.861 16.05ZM153.621 12L150.328 8.23711C150.312 8.2509 150.297 8.2648 150.281 8.27879L153.621 12ZM160.821 3.9L156.792 0.938048C156.787 0.945065 156.782 0.952096 156.777 0.95914L160.821 3.9ZM166.401 8.58L162.29 5.73395L162.29 5.73395L166.401 8.58ZM165.051 17.4L165.466 12.4173C165.328 12.4058 165.189 12.4 165.051 12.4V17.4ZM169.395 22.4858L173.805 22.3058L173.397 12.3142L168.987 12.4942L169.395 22.4858ZM173.601 22.31C173.595 22.31 173.497 22.3104 173.334 22.2886C173.187 22.2691 172.848 22.214 172.419 22.0424C172 21.8751 171.26 21.502 170.603 20.7134C169.872 19.8363 169.501 18.7487 169.501 17.67H179.501C179.501 16.4713 179.091 15.2787 178.285 14.3116C177.553 13.433 176.701 12.9849 176.133 12.7576C175.083 12.3378 174.087 12.31 173.601 12.31V22.31ZM169.501 17.67C169.501 17.3855 169.535 17.184 169.553 17.0944C169.572 16.9997 169.587 16.961 169.577 16.9889L179.064 20.1511C179.267 19.5416 179.501 18.6662 179.501 17.67H169.501ZM169.577 16.9888C169.625 16.8454 169.671 16.7436 169.698 16.6878C169.725 16.6308 169.742 16.6025 169.741 16.605C169.74 16.6068 169.726 16.629 169.696 16.6729C169.665 16.7164 169.622 16.7753 169.564 16.8503L177.457 22.9897C177.993 22.3013 178.675 21.3183 179.064 20.1512L169.577 16.9888ZM169.35 17.1465C169.304 17.2156 169.23 17.3052 169.091 17.4132L175.23 25.3068C176.171 24.5748 176.997 23.7044 177.671 22.6935L169.35 17.1465ZM169.057 17.4398C168.65 17.7622 168.001 18.07 166.761 18.07V28.07C169.841 28.07 172.791 27.2378 175.264 25.2802L169.057 17.4398ZM166.761 18.07C164.623 18.07 162.821 18.1284 161.496 18.2842L162.665 28.2157C163.38 28.1316 164.699 28.07 166.761 28.07V18.07ZM161.46 18.2886C159.822 18.4934 158.226 19.0306 156.787 19.9898L162.334 28.3102C162.335 28.3094 162.419 28.2466 162.701 28.2114L161.46 18.2886ZM156.787 19.9897C156.086 20.4569 155.218 21.0617 154.585 21.6945L161.656 28.7655C161.578 28.8439 161.532 28.8803 161.547 28.8686C161.556 28.8609 161.591 28.8321 161.661 28.78C161.802 28.6738 162.021 28.5192 162.334 28.3103L156.787 19.9897ZM154.585 21.6945C153.865 22.4144 153.145 23.5413 152.621 24.38L161.101 29.68C161.376 29.2387 161.581 28.9289 161.722 28.7273C161.792 28.6273 161.829 28.5783 161.838 28.5666C161.859 28.5404 161.793 28.6288 161.656 28.7655L154.585 21.6945ZM152.621 24.38C152.018 25.3439 151.634 25.9456 151.44 26.2365L159.761 31.7835C160.047 31.3544 160.503 30.6361 161.101 29.68L152.621 24.38ZM151.536 26.0986C148.199 30.7579 142.929 39.3222 135.796 51.6098L144.445 56.6302C151.592 44.3178 156.643 36.1421 159.666 31.9214L151.536 26.0986ZM135.787 51.6257C128.666 63.998 123.968 73.992 122.05 81.3967L131.731 83.9033C133.294 77.868 137.416 68.842 144.454 56.6143L135.787 51.6257ZM122.101 81.2133C122.237 80.7627 122.474 80.2837 122.841 79.8428C123.207 79.4044 123.62 79.0999 123.999 78.9004C124.366 78.7076 124.677 78.6242 124.865 78.5872C125.054 78.5502 125.169 78.55 125.181 78.55V88.55C126.105 88.55 127.388 88.4177 128.657 87.7496C130.092 86.9942 131.192 85.7128 131.68 84.0867L122.101 81.2133ZM125.181 78.55C125.669 78.55 126.005 78.6535 126.136 78.701C126.27 78.7494 126.293 78.7759 126.192 78.7137C126.097 78.6548 125.935 78.543 125.701 78.3532C125.47 78.1654 125.193 77.9206 124.869 77.6084L117.932 84.8116C118.881 85.7249 119.886 86.5707 120.929 87.2163C121.891 87.8119 123.379 88.55 125.181 88.55V78.55ZM124.869 77.6084C124.36 77.1184 124.13 76.7672 124.033 76.5779C123.949 76.4133 123.971 76.3835 123.971 76.44H113.971C113.971 79.878 115.723 82.6839 117.932 84.8116L124.869 77.6084ZM123.971 76.44C123.971 77.0011 123.829 77.1189 124.105 76.3859C124.322 75.8099 124.692 74.9772 125.26 73.8497C126.389 71.6041 128.136 68.5136 130.54 64.5366L121.982 59.3634C119.526 63.4264 117.627 66.7709 116.327 69.3553C115.679 70.6428 115.138 71.8239 114.747 72.8604C114.416 73.7399 113.971 75.0689 113.971 76.44H123.971ZM130.525 64.5598C135.431 56.5434 140.336 48.6776 145.24 40.9623L136.801 35.5977C131.865 43.3624 126.93 51.2766 121.996 59.3402L130.525 64.5598ZM145.25 40.9475C147.722 37.0277 149.614 33.9228 150.901 31.6642C151.539 30.5434 152.069 29.5599 152.453 28.7542C152.642 28.3561 152.835 27.9222 152.99 27.4903C153.089 27.216 153.401 26.3553 153.401 25.32H143.401C143.401 24.8219 143.483 24.4616 143.511 24.346C143.547 24.1973 143.579 24.1098 143.58 24.106C143.582 24.1015 143.544 24.2039 143.426 24.4508C143.195 24.9351 142.802 25.6766 142.211 26.7158C141.037 28.7772 139.239 31.7323 136.792 35.6125L145.25 40.9475ZM153.401 25.32C153.401 24.2518 153.192 22.8188 152.291 21.4665C151.322 20.0128 149.915 19.1946 148.533 18.8493L146.108 28.5507C145.447 28.3854 144.579 27.9272 143.97 27.0135C143.429 26.2012 143.401 25.4882 143.401 25.32H153.401ZM148.902 18.9566C147.336 18.4345 145.343 18.34 143.541 18.34V28.34C144.342 28.34 144.939 28.3673 145.362 28.4075C145.829 28.452 145.897 28.496 145.74 28.4434L148.902 18.9566ZM143.541 18.34H140.571V28.34H143.541V18.34ZM140.571 18.34C140.856 18.34 142.003 18.3976 143.085 19.396C144.242 20.4642 144.401 21.7419 144.401 22.26H134.401C134.401 23.4981 134.755 25.3158 136.302 26.744C137.773 28.1024 139.505 28.34 140.571 28.34V18.34ZM144.401 22.26C144.401 23.1334 143.996 23.4899 144.208 23.2397L136.574 16.7803C135.465 18.0901 134.401 19.9466 134.401 22.26H144.401ZM144.187 23.264C144.27 23.1667 144.611 22.8366 145.534 22.4353L141.547 13.2646C139.71 14.0634 137.951 15.1733 136.594 16.756L144.187 23.264ZM145.464 22.4654C146.904 21.8654 148.344 21.2654 149.784 20.6654L145.938 11.4346C144.498 12.0346 143.058 12.6346 141.618 13.2346L145.464 22.4654ZM149.718 20.6924C152.062 19.7546 154.516 17.9145 156.96 15.7212L150.281 8.27879C148.045 10.2854 146.659 11.1454 146.004 11.4076L149.718 20.6924ZM156.913 15.7629C159.658 13.3607 162.303 10.3629 164.864 6.84086L156.777 0.95914C154.538 4.03712 152.383 6.43927 150.328 8.23711L156.913 15.7629ZM164.849 6.86195C165.037 6.60549 165.743 5.83999 168.561 5.83999V-4.16001C164.058 -4.16001 159.604 -2.8855 156.792 0.938048L164.849 6.86195ZM168.561 5.83999C168.837 5.83999 168.199 5.91194 167.346 5.38382C166.847 5.0746 166.313 4.57962 165.93 3.86861C165.553 3.16911 165.451 2.49821 165.451 2.01H175.451C175.451 -0.00103515 174.489 -1.95569 172.61 -3.11883C171.127 -4.03695 169.544 -4.16001 168.561 -4.16001V5.83999ZM165.451 2.01C165.451 1.4996 165.534 1.11356 165.576 0.938278C165.625 0.738096 165.676 0.594253 165.701 0.527276C165.749 0.398449 165.776 0.355146 165.735 0.434522C165.659 0.585233 165.49 0.889088 165.182 1.38876C164.577 2.37027 163.624 3.80711 162.29 5.73395L170.512 11.426C171.878 9.45288 172.949 7.84473 173.694 6.63624C174.061 6.0409 174.398 5.46351 174.66 4.94672C174.788 4.69235 174.941 4.36873 175.074 4.01303C175.156 3.79106 175.451 3.00605 175.451 2.01H165.451ZM162.29 5.73395C160.898 7.74358 159.775 9.49516 158.98 10.9445C158.584 11.6666 158.219 12.4023 157.942 13.1166C157.704 13.731 157.351 14.7692 157.351 15.96H167.351C167.351 16.6408 167.166 16.989 167.265 16.7333C167.326 16.5777 167.468 16.2634 167.746 15.7555C168.301 14.7448 169.203 13.3164 170.512 11.426L162.29 5.73395ZM157.351 15.96C157.351 17.0114 157.608 18.1651 158.279 19.24C158.941 20.2987 159.831 21.0028 160.673 21.4518C162.207 22.2702 163.869 22.4 165.051 22.4V12.4C164.432 12.4 164.744 12.2898 165.379 12.6282C165.77 12.8372 166.323 13.2412 166.759 13.94C167.206 14.6549 167.351 15.3886 167.351 15.96H157.351ZM164.635 22.3827C165.594 22.4626 167.176 22.49 169.191 22.49V12.49C167.125 12.49 165.947 12.4574 165.466 12.4173L164.635 22.3827ZM159.076 71.85L154.099 71.376C154.084 71.5335 154.076 71.6917 154.076 71.85H159.076ZM159.256 69.96L164.234 70.434C164.249 70.2765 164.256 70.1183 164.256 69.96H159.256ZM155.386 71.58L151.984 67.916C151.962 67.9366 151.94 67.9574 151.918 67.9784L155.386 71.58ZM149.176 76.26L146.544 72.0087C146.505 72.0333 146.465 72.0584 146.426 72.0841L149.176 76.26ZM143.956 57.45L139.822 54.6384C139.813 54.6511 139.804 54.6638 139.796 54.6765L143.956 57.45ZM150.976 49.17L154.429 52.7868L154.43 52.785L150.976 49.17ZM160.786 42.87L162.73 47.4768C162.75 47.4683 162.77 47.4596 162.79 47.4508L160.786 42.87ZM178.516 42.15L175.468 46.1131C175.5 46.1381 175.533 46.1627 175.566 46.187L178.516 42.15ZM177.166 48L180.123 43.968C180.074 43.932 180.024 43.8968 179.974 43.8626L177.166 48ZM155.746 52.77L152.186 49.2593L152.186 49.2596L155.746 52.77ZM149.896 66.99L145.656 69.64C145.731 69.76 145.811 69.8768 145.896 69.99L149.896 66.99ZM158.266 64.02L161.553 67.7878C161.568 67.7747 161.583 67.7616 161.598 67.7483L158.266 64.02ZM166.546 53.22L170.877 55.7186C171.045 55.4274 171.183 55.1201 171.29 54.8011L166.546 53.22ZM168.526 51.69L170.466 56.2982L170.466 56.2982L168.526 51.69ZM172.576 50.97L172.98 45.9864C172.846 45.9755 172.711 45.97 172.576 45.97V50.97ZM175.186 53.58L171.026 50.8065C171.006 50.836 170.987 50.8657 170.968 50.8956L175.186 53.58ZM172.846 57.27L177.07 59.9453L177.07 59.9453L172.846 57.27ZM167.986 66.18L163.527 63.9181C163.523 63.9267 163.518 63.9353 163.514 63.9439L167.986 66.18ZM164.386 75.9L159.441 75.1583C159.425 75.2667 159.413 75.3756 159.403 75.4848L164.386 75.9ZM164.054 72.324L164.234 70.434L154.279 69.486L154.099 71.376L164.054 72.324ZM164.256 69.96C164.256 69.2392 164.146 67.787 163.121 66.42C161.893 64.7825 160.116 64.24 158.716 64.24V74.24C157.676 74.24 156.169 73.8175 155.121 72.42C154.276 71.293 154.256 70.2008 154.256 69.96H164.256ZM158.716 64.24C157.5 64.24 156.541 64.6419 156.067 64.8659C155.512 65.1285 155.014 65.4459 154.604 65.734C153.78 66.3127 152.894 67.0714 151.984 67.916L158.788 75.244C159.162 74.8973 159.482 74.6139 159.752 74.3872C160.026 74.1575 160.224 74.007 160.353 73.916C160.498 73.8141 160.484 73.839 160.341 73.9066C160.264 73.9432 160.099 74.0161 159.861 74.0842C159.631 74.1499 159.233 74.24 158.716 74.24V64.24ZM151.918 67.9784C150.619 69.2296 148.852 70.58 146.544 72.0087L151.808 80.5113C154.54 78.82 156.914 77.0504 158.854 75.1816L151.918 67.9784ZM146.426 72.0841C144.642 73.2593 143.093 73.69 141.706 73.69V83.69C145.36 83.69 148.791 82.5007 151.926 80.4359L146.426 72.0841ZM141.706 73.69C141.713 73.69 141.962 73.6934 142.313 73.8675C142.686 74.0522 142.946 74.3171 143.088 74.5283C143.208 74.7064 143.18 74.7491 143.126 74.5088C143.072 74.2699 143.016 73.8507 143.016 73.2H133.016C133.016 75.4329 133.363 77.9849 134.789 80.1067C136.452 82.5812 139.037 83.69 141.706 83.69V73.69ZM143.016 73.2C143.016 70.0399 144.418 65.7706 148.116 60.2235L139.796 54.6765C135.574 61.0094 133.016 67.2401 133.016 73.2H143.016ZM148.091 60.2615C149.931 57.555 152.042 55.0647 154.429 52.7868L147.524 45.5532C144.63 48.3153 142.061 51.345 139.822 54.6384L148.091 60.2615ZM154.43 52.785C156.643 50.6705 159.385 48.888 162.73 47.4768L158.843 38.2632C154.508 40.092 150.709 42.5095 147.522 45.555L154.43 52.785ZM162.79 47.4508C165.997 46.0479 169.335 45.35 172.846 45.35V35.35C167.958 35.35 163.255 36.3321 158.782 38.2892L162.79 47.4508ZM172.846 45.35C174.112 45.35 174.892 45.6706 175.468 46.1131L181.565 38.1869C179.02 36.2294 176.021 35.35 172.846 35.35V45.35ZM175.566 46.187C175.854 46.3973 175.896 46.5058 175.875 46.4664C175.866 46.451 175.858 46.4298 175.854 46.4124C175.85 46.3964 175.856 46.4113 175.856 46.47H185.856C185.856 42.9409 184.15 40.0743 181.466 38.113L175.566 46.187ZM175.856 46.47C175.856 46.9669 175.752 46.5032 176.2 45.7651C176.469 45.322 176.919 44.8177 177.589 44.4496C178.251 44.0862 178.883 43.99 179.326 43.99V53.99C181.502 53.99 183.545 52.9361 184.748 50.9549C185.706 49.3768 185.856 47.6531 185.856 46.47H175.856ZM179.326 43.99C179.696 43.99 179.98 44.0456 180.154 44.0913C180.329 44.1371 180.435 44.1839 180.464 44.1972C180.509 44.2174 180.401 44.1721 180.123 43.968L174.209 52.032C175.216 52.7702 177.067 53.99 179.326 53.99V43.99ZM179.974 43.8626C177.041 41.8728 173.169 41.29 169.246 41.29V51.29C172.523 51.29 173.931 51.8472 174.359 52.1374L179.974 43.8626ZM169.246 41.29C162.82 41.29 157.109 44.2666 152.186 49.2593L159.306 56.2807C162.903 52.6334 166.192 51.29 169.246 51.29V41.29ZM152.186 49.2596C147.457 54.0557 144.446 59.4754 144.446 65.46H154.446C154.446 63.0446 155.635 60.0043 159.307 56.2804L152.186 49.2596ZM144.446 65.46C144.446 66.9834 144.885 68.4055 145.656 69.64L154.136 64.34C154.212 64.4609 154.294 64.6279 154.356 64.8367C154.417 65.0471 154.446 65.2601 154.446 65.46H144.446ZM145.896 69.99C147.2 71.729 149.162 72.71 151.336 72.71V62.71C151.72 62.71 152.23 62.7916 152.762 63.0579C153.295 63.3242 153.666 63.6831 153.896 63.99L145.896 69.99ZM151.336 72.71C155.11 72.71 158.643 70.3263 161.553 67.7878L154.979 60.2522C153.745 61.3293 152.779 61.9962 152.069 62.3741C151.331 62.7667 151.129 62.71 151.336 62.71V72.71ZM161.598 67.7483C164.944 64.758 168.015 60.6788 170.877 55.7186L162.215 50.7214C159.677 55.1212 157.228 58.242 154.935 60.2917L161.598 67.7483ZM171.29 54.8011C170.951 55.8163 170.343 56.3046 170.233 56.3889C170.099 56.4927 170.123 56.4428 170.466 56.2982L166.586 47.0818C165.789 47.4172 164.913 47.8623 164.119 48.4761C163.35 49.0704 162.321 50.0837 161.803 51.6389L171.29 54.8011ZM170.466 56.2982C170.855 56.1348 171.515 55.97 172.576 55.97V45.97C170.518 45.97 168.478 46.2852 166.586 47.0818L170.466 56.2982ZM172.172 55.9536C173.115 56.0301 173.294 56.1429 173.089 56.0543C172.966 56.0011 172.461 55.7702 171.946 55.1864C171.347 54.5065 170.906 53.5291 170.906 52.41H180.906C180.906 49.026 178.305 47.415 177.058 46.8757C175.743 46.3071 174.257 46.0899 172.98 45.9864L172.172 55.9536ZM170.906 52.41C170.906 52.0168 170.953 51.6998 170.99 51.5021C171.029 51.2937 171.074 51.1234 171.109 51.0047C171.178 50.7741 171.249 50.5984 171.287 50.5077C171.364 50.3245 171.432 50.1962 171.449 50.1639C171.491 50.0851 171.509 50.0601 171.468 50.127C171.396 50.2435 171.256 50.4611 171.026 50.8065L179.346 56.3535C179.596 55.9789 179.816 55.6415 179.984 55.368C180.063 55.2399 180.171 55.0611 180.273 54.8698C180.32 54.7813 180.411 54.607 180.503 54.3882C180.549 54.2797 180.625 54.0888 180.697 53.8455C180.749 53.6713 180.906 53.1265 180.906 52.41H170.906ZM170.968 50.8956C170.545 51.5608 169.762 52.7952 168.622 54.5947L177.07 59.9453C178.211 58.1448 178.988 56.9192 179.404 56.2644L170.968 50.8956ZM168.622 54.5947C167.346 56.6098 165.636 59.7612 163.527 63.9181L172.445 68.4419C174.537 64.3188 176.066 61.5302 177.07 59.9453L168.622 54.5947ZM163.514 63.9439C161.407 68.1572 159.921 71.9646 159.441 75.1583L169.331 76.6417C169.572 75.0354 170.485 72.3628 172.458 68.4161L163.514 63.9439ZM159.403 75.4848C159.416 75.3385 159.499 74.4405 160.275 73.5091C161.226 72.3684 162.525 71.98 163.486 71.98V81.98C164.988 81.98 166.707 81.4116 167.957 79.9109C169.033 78.6195 169.297 77.1815 169.369 76.3152L159.403 75.4848ZM163.486 71.98C163.224 71.98 163.218 71.9408 163.364 71.9976C163.441 72.0272 163.545 72.0778 163.661 72.1585C163.777 72.2398 163.882 72.3357 163.97 72.4381C164.151 72.6485 164.179 72.7907 164.158 72.7171C164.133 72.6289 164.076 72.3631 164.076 71.85H154.076C154.076 74.1612 154.557 76.8277 156.387 78.9569C158.342 81.2308 161.031 81.98 163.486 81.98V71.98ZM200.788 42.15L201.081 37.1586C200.984 37.1529 200.886 37.15 200.788 37.15V42.15ZM202.318 42.24L202.024 47.2314C202.122 47.2371 202.22 47.24 202.318 47.24V42.24ZM204.748 40.71L209.057 43.2451C209.212 42.9821 209.342 42.7055 209.447 42.4187L204.748 40.71ZM210.058 38.82L209.96 43.819C209.992 43.8197 210.025 43.82 210.058 43.82V38.82ZM207.538 48.99L211.469 52.0791C211.481 52.0642 211.493 52.0492 211.504 52.0341L207.538 48.99ZM202.948 56.64L198.335 54.7093C198.287 54.8242 198.244 54.9408 198.204 55.0589L202.948 56.64ZM199.618 56.1L195.359 58.7205C195.391 58.7721 195.424 58.8231 195.457 58.8735L199.618 56.1ZM199.168 51.33L194.469 49.6213C194.422 49.7506 194.38 49.8817 194.344 50.0144L199.168 51.33ZM188.368 54.21L192.499 57.0267C192.505 57.0171 192.512 57.0074 192.518 56.9978L188.368 54.21ZM197.458 69.87L200.108 74.11C200.32 73.9774 200.522 73.8291 200.712 73.6663L197.458 69.87ZM195.478 75.72L192.547 71.6689C192.528 71.6824 192.51 71.696 192.491 71.7098L195.478 75.72ZM177.208 75.9L173.208 78.9C173.212 78.9064 173.217 78.9129 173.222 78.9193L177.208 75.9ZM176.938 61.41L172.361 59.3963C172.35 59.4221 172.339 59.4479 172.328 59.4738L176.938 61.41ZM182.068 52.59L178.038 49.6296C178.035 49.6345 178.031 49.6393 178.028 49.6441L182.068 52.59ZM190.348 45.21L192.886 49.5177C192.905 49.5066 192.924 49.4953 192.943 49.4839L190.348 45.21ZM200.494 47.1414L202.024 47.2314L202.611 37.2486L201.081 37.1586L200.494 47.1414ZM202.318 47.24C205.423 47.24 207.73 45.5014 209.057 43.2451L200.438 38.1749C200.449 38.1561 200.614 37.886 201.026 37.6263C201.472 37.3457 201.95 37.24 202.318 37.24V47.24ZM209.447 42.4187C209.258 42.9368 208.946 43.3487 208.624 43.6278C208.476 43.7566 208.345 43.8396 208.256 43.889C208.168 43.9379 208.115 43.957 208.112 43.958C208.109 43.9591 208.144 43.9464 208.227 43.9282C208.31 43.9101 208.429 43.8889 208.591 43.8699C208.918 43.8313 209.368 43.8074 209.96 43.819L210.156 33.821C208.353 33.7856 206.458 33.932 204.759 34.537C202.974 35.1722 200.957 36.5042 200.049 39.0013L209.447 42.4187ZM210.058 43.82C210.663 43.82 211.096 43.8518 211.386 43.8917C211.693 43.9338 211.728 43.9699 211.596 43.9159C211.472 43.8646 210.966 43.636 210.475 43.0291C209.917 42.3408 209.648 41.4952 209.648 40.71H219.648C219.648 39.2948 219.187 37.8979 218.247 36.7371C217.373 35.6577 216.294 35.0354 215.404 34.6691C213.72 33.9758 211.781 33.82 210.058 33.82V43.82ZM209.648 40.71C209.648 40.3244 209.693 39.9991 209.741 39.7562C209.79 39.5103 209.85 39.3049 209.903 39.1488C210.006 38.8461 210.117 38.6183 210.184 38.4894C210.316 38.237 210.433 38.0737 210.458 38.0393C210.517 37.9574 210.516 37.969 210.385 38.1171C210.143 38.3914 209.711 38.846 209.042 39.5145L216.113 46.5855C216.825 45.874 217.428 45.2486 217.875 44.7429C218.089 44.501 218.347 44.1976 218.578 43.8757C218.689 43.7213 218.871 43.4568 219.046 43.1219C219.124 42.9743 219.648 42.0225 219.648 40.71H209.648ZM209.042 39.5145C207.44 41.1164 205.609 43.2905 203.571 45.9459L211.504 52.0341C213.426 49.5295 214.955 47.7436 216.113 46.5855L209.042 39.5145ZM203.606 45.9009C201.388 48.7243 199.612 51.6591 198.335 54.7093L207.56 58.5707C208.443 56.4609 209.728 54.2957 211.469 52.0791L203.606 45.9009ZM198.204 55.0589C198.775 53.3468 200.097 52.6052 200.742 52.3634C201.308 52.1511 201.661 52.18 201.508 52.18V62.18C202.194 62.18 203.207 62.1189 204.253 61.7266C205.378 61.3048 207 60.2932 207.691 58.2211L198.204 55.0589ZM201.508 52.18C201.92 52.18 202.434 52.2848 202.931 52.5688C203.408 52.8413 203.67 53.164 203.778 53.3265L195.457 58.8735C196.745 60.8054 198.852 62.18 201.508 62.18V52.18ZM203.876 53.4795C203.847 53.433 203.857 53.4364 203.872 53.4871C203.887 53.5405 203.898 53.6063 203.898 53.67H193.898C193.898 55.5182 194.44 57.2262 195.359 58.7205L203.876 53.4795ZM203.898 53.67C203.898 53.0833 203.959 52.7665 203.991 52.6456L194.344 50.0144C194.017 51.2135 193.898 52.4567 193.898 53.67H203.898ZM203.867 53.0387C204.11 52.3697 204.528 51.1545 204.528 49.89H194.528C194.528 49.7629 194.534 49.6573 194.541 49.5778C194.548 49.4977 194.556 49.4337 194.563 49.3885C194.577 49.3014 194.589 49.256 194.587 49.2623C194.586 49.2661 194.578 49.2983 194.557 49.3631C194.537 49.4269 194.508 49.5122 194.469 49.6213L203.867 53.0387ZM204.528 49.89C204.528 48.413 204.097 46.426 202.41 44.8998C200.818 43.4596 198.922 43.18 197.638 43.18V53.18C197.614 53.18 196.662 53.1854 195.701 52.3152C194.644 51.359 194.528 50.227 194.528 49.89H204.528ZM197.638 43.18C191.889 43.18 187.45 46.6092 184.217 51.4222L192.518 56.9978C194.686 53.7708 196.426 53.18 197.638 53.18V43.18ZM184.237 51.3933C181.214 55.8259 179.318 60.4353 179.318 65.1H189.318C189.318 63.1647 190.121 60.5141 192.499 57.0267L184.237 51.3933ZM179.318 65.1C179.318 68.0264 180.028 71.146 182.331 73.5136C184.659 75.9069 187.771 76.67 190.708 76.67V66.67C189.384 66.67 189.302 66.3381 189.499 66.5414C189.672 66.719 189.318 66.5536 189.318 65.1H179.318ZM190.708 76.67C194.091 76.67 197.287 75.8731 200.108 74.11L194.808 65.63C193.789 66.2669 192.484 66.67 190.708 66.67V76.67ZM200.712 73.6663C200.517 73.8332 199.826 74.33 198.718 74.33V64.33C196.769 64.33 195.238 65.1868 194.204 66.0737L200.712 73.6663ZM198.718 74.33C198.277 74.33 197.028 74.2164 195.925 73.113C194.821 72.0096 194.708 70.7607 194.708 70.32H204.708C204.708 69.2193 204.429 67.4754 202.996 66.042C201.562 64.6086 199.818 64.33 198.718 64.33V74.33ZM194.708 70.32C194.708 69.5669 195.039 69.3416 194.714 69.7567C194.406 70.1501 193.754 70.7959 192.547 71.6689L198.408 79.7711C200.021 78.6041 201.484 77.3299 202.586 75.9233C203.671 74.5384 204.708 72.6331 204.708 70.32H194.708ZM192.491 71.7098C190.642 73.087 188.334 73.87 185.308 73.87V83.87C190.201 83.87 194.673 82.553 198.464 79.7302L192.491 71.7098ZM185.308 73.87C182.067 73.87 181.31 73.0347 181.193 72.8807L173.222 78.9193C176.106 82.7253 180.748 83.87 185.308 83.87V73.87ZM181.208 72.9C180.399 71.8216 180.048 70.7387 180.048 69.51H170.048C170.048 72.9613 171.136 76.1384 173.208 78.9L181.208 72.9ZM180.048 69.51C180.048 67.9661 180.459 65.9382 181.548 63.3462L172.328 59.4738C170.896 62.8818 170.048 66.2539 170.048 69.51H180.048ZM181.514 63.4237C182.677 60.78 184.201 58.1504 186.108 55.5359L178.028 49.6441C175.734 52.7896 173.838 56.0399 172.361 59.3963L181.514 63.4237ZM186.097 55.5504C187.829 53.1927 190.068 51.1782 192.886 49.5177L187.809 40.9023C183.907 43.2018 180.626 46.1073 178.038 49.6296L186.097 55.5504ZM192.943 49.4839C195.595 47.8737 198.186 47.15 200.788 47.15V37.15C196.189 37.15 191.821 38.4663 187.753 40.9361L192.943 49.4839ZM251.105 17.49V22.49C251.173 22.49 251.241 22.4886 251.309 22.4858L251.105 17.49ZM255.515 17.31V12.31C255.447 12.31 255.379 12.3114 255.311 12.3142L255.515 17.31ZM256.235 18.57L260.978 20.1512L260.978 20.1511L256.235 18.57ZM255.425 19.92L251.478 16.8503C251.403 16.9464 251.332 17.0452 251.264 17.1465L255.425 19.92ZM254.075 21.36L251.005 17.4132C250.994 17.422 250.982 17.4309 250.971 17.4398L254.075 21.36ZM243.995 23.25L243.41 18.2842C243.398 18.2857 243.386 18.2871 243.375 18.2886L243.995 23.25ZM241.475 24.15L244.248 28.3103L244.248 28.3102L241.475 24.15ZM238.775 27.03L234.535 24.38L234.535 24.38L238.775 27.03ZM237.515 29.01L241.58 31.9214C241.612 31.876 241.644 31.83 241.675 31.7835L237.515 29.01ZM222.035 54.12L217.71 51.6098C217.707 51.6151 217.704 51.6204 217.701 51.6257L222.035 54.12ZM208.805 82.65L213.594 84.0867C213.612 84.0259 213.629 83.9648 213.645 83.9033L208.805 82.65ZM203.315 81.21L199.846 84.8116L199.846 84.8116L203.315 81.21ZM208.175 61.95L203.91 59.3402C203.905 59.3479 203.9 59.3557 203.896 59.3634L208.175 61.95ZM222.935 38.28L227.154 40.9623C227.157 40.9573 227.161 40.9524 227.164 40.9475L222.935 38.28ZM229.235 23.7L227.654 28.4434C227.775 28.4839 227.898 28.5197 228.022 28.5507L229.235 23.7ZM222.305 20.01L218.508 16.756C218.501 16.7641 218.495 16.7722 218.488 16.7803L222.305 20.01ZM225.455 17.85L223.532 13.2346C223.508 13.2444 223.484 13.2545 223.461 13.2646L225.455 17.85ZM229.775 16.05L227.918 11.4076C227.896 11.4165 227.874 11.4255 227.852 11.4346L229.775 16.05ZM235.535 12L232.242 8.23711C232.226 8.2509 232.211 8.2648 232.195 8.27879L235.535 12ZM242.735 3.9L238.706 0.938048C238.701 0.945065 238.696 0.952096 238.691 0.95914L242.735 3.9ZM248.315 8.58L244.204 5.73395L244.204 5.73395L248.315 8.58ZM246.965 17.4L247.38 12.4173C247.242 12.4058 247.103 12.4 246.965 12.4V17.4ZM251.309 22.4858L255.719 22.3058L255.311 12.3142L250.901 12.4942L251.309 22.4858ZM255.515 22.31C255.509 22.31 255.411 22.3104 255.248 22.2886C255.101 22.2691 254.762 22.214 254.333 22.0424C253.915 21.8751 253.174 21.502 252.517 20.7134C251.786 19.8363 251.415 18.7487 251.415 17.67H261.415C261.415 16.4713 261.005 15.2787 260.2 14.3116C259.467 13.433 258.615 12.9849 258.047 12.7576C256.997 12.3378 256.001 12.31 255.515 12.31V22.31ZM251.415 17.67C251.415 17.3855 251.449 17.184 251.467 17.0944C251.486 16.9997 251.501 16.961 251.491 16.9889L260.978 20.1511C261.181 19.5416 261.415 18.6662 261.415 17.67H251.415ZM251.491 16.9888C251.539 16.8454 251.585 16.7436 251.612 16.6878C251.639 16.6308 251.656 16.6025 251.655 16.605C251.654 16.6068 251.64 16.629 251.61 16.6729C251.579 16.7164 251.536 16.7753 251.478 16.8503L259.371 22.9897C259.907 22.3013 260.589 21.3183 260.978 20.1512L251.491 16.9888ZM251.264 17.1465C251.218 17.2156 251.144 17.3052 251.005 17.4132L257.144 25.3068C258.086 24.5748 258.911 23.7044 259.585 22.6935L251.264 17.1465ZM250.971 17.4398C250.564 17.7622 249.915 18.07 248.675 18.07V28.07C251.755 28.07 254.705 27.2378 257.178 25.2802L250.971 17.4398ZM248.675 18.07C246.537 18.07 244.735 18.1284 243.41 18.2842L244.579 28.2157C245.294 28.1316 246.613 28.07 248.675 28.07V18.07ZM243.375 18.2886C241.736 18.4934 240.14 19.0306 238.701 19.9898L244.248 28.3102C244.249 28.3094 244.333 28.2466 244.615 28.2114L243.375 18.2886ZM238.701 19.9897C238 20.4569 237.132 21.0617 236.499 21.6945L243.57 28.7655C243.492 28.8439 243.447 28.8803 243.461 28.8686C243.47 28.8609 243.505 28.8321 243.575 28.78C243.716 28.6738 243.935 28.5192 244.248 28.3103L238.701 19.9897ZM236.499 21.6945C235.779 22.4144 235.059 23.5413 234.535 24.38L243.015 29.68C243.291 29.2387 243.495 28.9289 243.636 28.7273C243.706 28.6273 243.743 28.5783 243.753 28.5666C243.773 28.5404 243.707 28.6288 243.57 28.7655L236.499 21.6945ZM234.535 24.38C233.932 25.3439 233.548 25.9456 233.354 26.2365L241.675 31.7835C241.961 31.3544 242.417 30.6361 243.015 29.68L234.535 24.38ZM233.45 26.0986C230.113 30.7579 224.843 39.3222 217.71 51.6098L226.359 56.6302C233.506 44.3178 238.557 36.1421 241.58 31.9214L233.45 26.0986ZM217.701 51.6257C210.58 63.998 205.882 73.992 203.964 81.3967L213.645 83.9033C215.208 77.868 219.33 68.842 226.368 56.6143L217.701 51.6257ZM204.016 81.2133C204.151 80.7627 204.388 80.2837 204.755 79.8428C205.121 79.4044 205.535 79.0999 205.913 78.9004C206.28 78.7076 206.591 78.6242 206.779 78.5872C206.968 78.5502 207.083 78.55 207.095 78.55V88.55C208.02 88.55 209.302 88.4177 210.571 87.7496C212.006 86.9942 213.106 85.7128 213.594 84.0867L204.016 81.2133ZM207.095 78.55C207.584 78.55 207.919 78.6535 208.05 78.701C208.184 78.7494 208.207 78.7759 208.106 78.7137C208.011 78.6548 207.849 78.543 207.615 78.3532C207.384 78.1654 207.107 77.9206 206.783 77.6084L199.846 84.8116C200.795 85.7249 201.8 86.5707 202.843 87.2163C203.805 87.8119 205.293 88.55 207.095 88.55V78.55ZM206.783 77.6084C206.274 77.1184 206.044 76.7672 205.947 76.5779C205.864 76.4133 205.885 76.3835 205.885 76.44H195.885C195.885 79.878 197.637 82.6839 199.846 84.8116L206.783 77.6084ZM205.885 76.44C205.885 77.0011 205.743 77.1189 206.019 76.3859C206.236 75.8099 206.606 74.9772 207.174 73.8497C208.304 71.6041 210.05 68.5136 212.454 64.5366L203.896 59.3634C201.44 63.4264 199.541 66.7709 198.241 69.3553C197.593 70.6428 197.052 71.8239 196.661 72.8604C196.33 73.7399 195.885 75.0689 195.885 76.44H205.885ZM212.44 64.5598C217.345 56.5434 222.25 48.6776 227.154 40.9623L218.715 35.5977C213.779 43.3624 208.844 51.2766 203.91 59.3402L212.44 64.5598ZM227.164 40.9475C229.636 37.0277 231.528 33.9228 232.815 31.6642C233.453 30.5434 233.983 29.5599 234.367 28.7542C234.557 28.3561 234.749 27.9222 234.904 27.4903C235.003 27.216 235.315 26.3553 235.315 25.32H225.315C225.315 24.8219 225.397 24.4616 225.425 24.346C225.461 24.1973 225.493 24.1098 225.494 24.106C225.496 24.1015 225.458 24.2039 225.34 24.4508C225.109 24.9351 224.717 25.6766 224.125 26.7158C222.951 28.7772 221.153 31.7323 218.706 35.6125L227.164 40.9475ZM235.315 25.32C235.315 24.2518 235.107 22.8188 234.205 21.4665C233.236 20.0128 231.829 19.1946 230.447 18.8493L228.022 28.5507C227.361 28.3854 226.494 27.9272 225.884 27.0135C225.343 26.2012 225.315 25.4882 225.315 25.32H235.315ZM230.816 18.9566C229.25 18.4345 227.257 18.34 225.455 18.34V28.34C226.256 28.34 226.853 28.3673 227.276 28.4075C227.743 28.452 227.811 28.496 227.654 28.4434L230.816 18.9566ZM225.455 18.34H222.485V28.34H225.455V18.34ZM222.485 18.34C222.771 18.34 223.917 18.3976 224.999 19.396C226.156 20.4642 226.315 21.7419 226.315 22.26H216.315C216.315 23.4981 216.669 25.3158 218.216 26.744C219.687 28.1024 221.419 28.34 222.485 28.34V18.34ZM226.315 22.26C226.315 23.1334 225.91 23.4899 226.122 23.2397L218.488 16.7803C217.379 18.0901 216.315 19.9466 216.315 22.26H226.315ZM226.101 23.264C226.184 23.1667 226.525 22.8366 227.448 22.4353L223.461 13.2646C221.624 14.0634 219.865 15.1733 218.508 16.756L226.101 23.264ZM227.378 22.4654C228.818 21.8654 230.258 21.2654 231.698 20.6654L227.852 11.4346C226.412 12.0346 224.972 12.6346 223.532 13.2346L227.378 22.4654ZM231.632 20.6924C233.976 19.7546 236.43 17.9145 238.874 15.7212L232.195 8.27879C229.959 10.2854 228.573 11.1454 227.918 11.4076L231.632 20.6924ZM238.827 15.7629C241.573 13.3607 244.217 10.3629 246.778 6.84086L238.691 0.95914C236.452 4.03712 234.297 6.43927 232.242 8.23711L238.827 15.7629ZM246.763 6.86195C246.952 6.60549 247.657 5.83999 250.475 5.83999V-4.16001C245.972 -4.16001 241.518 -2.8855 238.706 0.938048L246.763 6.86195ZM250.475 5.83999C250.751 5.83999 250.114 5.91194 249.26 5.38382C248.761 5.0746 248.227 4.57962 247.844 3.86861C247.468 3.16911 247.365 2.49821 247.365 2.01H257.365C257.365 -0.00103515 256.403 -1.95569 254.524 -3.11883C253.041 -4.03695 251.458 -4.16001 250.475 -4.16001V5.83999ZM247.365 2.01C247.365 1.4996 247.448 1.11356 247.491 0.938278C247.539 0.738096 247.59 0.594253 247.615 0.527276C247.663 0.398449 247.69 0.355146 247.649 0.434522C247.573 0.585233 247.404 0.889088 247.096 1.38876C246.491 2.37027 245.538 3.80711 244.204 5.73395L252.426 11.426C253.792 9.45288 254.864 7.84473 255.608 6.63624C255.975 6.0409 256.312 5.46351 256.574 4.94672C256.702 4.69235 256.856 4.36873 256.988 4.01303C257.07 3.79106 257.365 3.00605 257.365 2.01H247.365ZM244.204 5.73395C242.812 7.74358 241.689 9.49516 240.894 10.9445C240.498 11.6666 240.133 12.4023 239.856 13.1166C239.618 13.731 239.265 14.7692 239.265 15.96H249.265C249.265 16.6408 249.08 16.989 249.179 16.7333C249.24 16.5777 249.382 16.2634 249.661 15.7555C250.215 14.7448 251.117 13.3164 252.426 11.426L244.204 5.73395ZM239.265 15.96C239.265 17.0114 239.522 18.1651 240.193 19.24C240.855 20.2987 241.745 21.0028 242.587 21.4518C244.121 22.2702 245.784 22.4 246.965 22.4V12.4C246.346 12.4 246.658 12.2898 247.293 12.6282C247.684 12.8372 248.237 13.2412 248.673 13.94C249.12 14.6549 249.265 15.3886 249.265 15.96H239.265ZM246.549 22.3827C247.508 22.4626 249.09 22.49 251.105 22.49V12.49C249.039 12.49 247.861 12.4574 247.38 12.4173L246.549 22.3827ZM245.853 74.19L242.922 78.2411C242.936 78.2509 242.949 78.2605 242.963 78.2701L245.853 74.19ZM245.133 54.93L240.672 52.6714C240.668 52.6789 240.665 52.6864 240.661 52.6939L245.133 54.93ZM254.853 37.56L250.576 34.971C250.57 34.9802 250.564 34.9894 250.559 34.9986L254.853 37.56ZM263.673 22.08L259.216 19.8138C259.211 19.8238 259.206 19.8339 259.201 19.8439L263.673 22.08ZM266.913 12L263.378 8.46446L263.378 8.46447L266.913 12ZM279.783 14.16L276.248 10.6245C276.053 10.8192 275.874 11.0297 275.714 11.2538L279.783 14.16ZM264.573 38.82L260.245 36.3157L260.245 36.3157L264.573 38.82ZM269.883 65.46L273.316 69.0951C273.351 69.0624 273.385 69.0292 273.419 68.9955L269.883 65.46ZM273.933 60.42L269.752 57.6782C269.729 57.7129 269.707 57.7479 269.685 57.7832L273.933 60.42ZM283.293 43.23L287.779 45.4384C287.781 45.4339 287.783 45.4294 287.786 45.4248L283.293 43.23ZM293.553 22.35L289.081 20.1139C289.078 20.1198 289.075 20.1258 289.072 20.1317L293.553 22.35ZM299.943 11.73L303.067 15.6343C303.074 15.6283 303.082 15.6223 303.089 15.6162L299.943 11.73ZM309.483 13.89L305.687 10.636C305.656 10.6716 305.626 10.7076 305.597 10.744L309.483 13.89ZM304.893 20.46L300.708 17.7238L300.708 17.7238L304.893 20.46ZM297.783 31.62L293.543 28.97C293.534 28.9842 293.525 28.9985 293.517 29.0127L297.783 31.62ZM290.853 43.05L286.566 40.4775L286.566 40.4775L290.853 43.05ZM283.833 54.84L279.531 52.2925C279.527 52.2983 279.524 52.3041 279.52 52.3099L283.833 54.84ZM279.153 62.76L274.895 60.1395C274.874 60.1724 274.855 60.2056 274.835 60.239L279.153 62.76ZM256.653 72.25C253.133 72.25 250.605 71.4284 248.743 70.1099L242.963 78.2701C246.862 81.0316 251.533 82.25 256.653 82.25V72.25ZM248.784 70.1389C247.365 69.1124 246.623 67.7951 246.623 65.55H236.623C236.623 70.7449 238.701 75.1876 242.922 78.2411L248.784 70.1389ZM246.623 65.55C246.623 64.4133 247.295 61.7855 249.605 57.1661L240.661 52.6939C238.291 57.4345 236.623 61.8867 236.623 65.55H246.623ZM249.594 57.1886C251.923 52.5884 255.1 46.9059 259.147 40.1214L250.559 34.9986C246.446 41.8941 243.143 47.7916 240.672 52.6714L249.594 57.1886ZM259.131 40.149C263.284 33.2873 266.311 27.9851 268.145 24.3161L259.201 19.8439C257.555 23.1349 254.702 28.1527 250.576 34.971L259.131 40.149ZM268.13 24.3462C270.047 20.5758 271.373 16.8458 271.373 13.44H261.373C261.373 14.4742 260.899 16.5042 259.216 19.8138L268.13 24.3462ZM271.373 13.44C271.373 13.6393 271.343 13.9775 271.19 14.3856C271.031 14.8091 270.777 15.2072 270.449 15.5355L263.378 8.46447C261.914 9.92814 261.373 11.7687 261.373 13.44H271.373ZM270.449 15.5355C269.872 16.1123 269.374 16.2371 269.53 16.1845C269.606 16.1585 269.876 16.0827 270.425 16.0027C271.518 15.8432 273.194 15.74 275.553 15.74V5.74C272.992 5.74 270.768 5.84684 268.982 6.10733C268.09 6.23732 267.175 6.42395 266.322 6.71302C265.547 6.97538 264.374 7.4677 263.378 8.46446L270.449 15.5355ZM275.553 15.74C276.212 15.74 276.697 15.7727 277.037 15.8166C277.393 15.8628 277.476 15.9074 277.386 15.8725C277.311 15.8435 276.816 15.644 276.313 15.0571C275.728 14.3749 275.413 13.4924 275.413 12.63H285.413C285.413 11.1376 284.895 9.70384 283.906 8.54917C282.997 7.4897 281.895 6.89646 281.01 6.55247C279.319 5.8948 277.352 5.74 275.553 5.74V15.74ZM275.413 12.63C275.413 12.3347 275.467 11.9589 275.632 11.5587C275.797 11.1576 276.027 10.845 276.248 10.6245L283.319 17.6955C284.687 16.3272 285.413 14.5409 285.413 12.63H275.413ZM275.714 11.2538C272.261 16.0887 267.086 24.4953 260.245 36.3157L268.901 41.3243C275.74 29.5047 280.705 21.4713 283.852 17.0662L275.714 11.2538ZM260.245 36.3157C256.789 42.2891 254.133 47.2863 252.326 51.2649C251.422 53.2533 250.697 55.0627 250.189 56.6623C249.703 58.1916 249.313 59.8417 249.313 61.41H259.313C259.313 61.4235 259.314 61.2902 259.378 60.9663C259.44 60.6528 259.547 60.2316 259.72 59.6889C260.067 58.5961 260.624 57.1767 261.431 55.4001C263.044 51.8487 265.517 47.1709 268.901 41.3243L260.245 36.3157ZM249.313 61.41C249.313 64.4418 249.994 67.6487 252.238 70.1105C254.561 72.6603 257.737 73.52 260.793 73.52V63.52C259.529 63.52 259.465 63.1947 259.629 63.3745C259.712 63.4663 259.313 63.1182 259.313 61.41H249.313ZM260.793 73.52C265.559 73.52 269.967 72.2582 273.316 69.0951L266.45 61.8249C265.479 62.7418 263.827 63.52 260.793 63.52V73.52ZM273.419 68.9955C275.278 67.1358 276.877 65.1586 278.181 63.0568L269.685 57.7832C268.829 59.1614 267.728 60.5442 266.348 61.9245L273.419 68.9955ZM278.114 63.1618C280.689 59.2356 283.918 53.2804 287.779 45.4384L278.807 41.0216C274.988 48.7796 271.977 54.2844 269.752 57.6782L278.114 63.1618ZM287.786 45.4248C291.623 37.5705 295.039 30.6186 298.034 24.5683L289.072 20.1317C286.067 26.2014 282.643 33.1695 278.801 41.0352L287.786 45.4248ZM298.025 24.5861C299.529 21.5777 300.761 19.2931 301.73 17.6828C302.84 15.8378 303.262 15.4777 303.067 15.6343L296.82 7.82565C295.424 8.94227 294.181 10.8322 293.161 12.5272C292 14.4569 290.637 17.0023 289.081 20.1139L298.025 24.5861ZM303.089 15.6162C302.961 15.7196 303.053 15.5913 303.657 15.4487C304.249 15.3089 305.146 15.2 306.423 15.2V5.2C303.1 5.2 299.451 5.69555 296.797 7.84377L303.089 15.6162ZM306.423 15.2C307.89 15.2 308.598 15.2934 308.809 15.342C308.947 15.3739 308.528 15.3089 307.964 14.9185C307.649 14.7001 307.178 14.3035 306.779 13.6586C306.353 12.971 306.103 12.1479 306.103 11.28H316.103C316.103 8.95713 314.727 7.43764 313.657 6.69654C312.703 6.0361 311.699 5.74609 311.057 5.59804C309.708 5.28659 308.076 5.2 306.423 5.2V15.2ZM306.103 11.28C306.103 10.8796 306.158 10.5575 306.209 10.3401C306.26 10.12 306.32 9.95535 306.359 9.85617C306.434 9.66936 306.488 9.59438 306.45 9.65568C306.419 9.70564 306.346 9.81502 306.212 9.99129C306.08 10.1643 305.908 10.3782 305.687 10.636L313.279 17.144C313.897 16.4232 314.485 15.6722 314.946 14.9293C315.265 14.4158 316.103 13.0347 316.103 11.28H306.103ZM305.597 10.744C304.403 12.2187 302.753 14.5959 300.708 17.7238L309.078 23.1962C311.113 20.0841 312.523 18.0812 313.369 17.036L305.597 10.744ZM300.708 17.7238C298.644 20.8805 296.255 24.6307 293.543 28.97L302.023 34.27C304.711 29.9693 307.062 26.2795 309.078 23.1962L300.708 17.7238ZM293.517 29.0127C290.872 33.3409 288.554 37.1629 286.566 40.4775L295.141 45.6225C297.112 42.337 299.414 38.5391 302.049 34.2272L293.517 29.0127ZM286.566 40.4775C284.579 43.7883 282.234 47.727 279.531 52.2925L288.135 57.3875C290.832 52.833 293.167 48.9117 295.141 45.6225L286.566 40.4775ZM279.52 52.3099C276.865 56.8371 275.34 59.4167 274.895 60.1395L283.411 65.3805C283.927 64.5433 285.522 61.8429 288.146 57.3701L279.52 52.3099ZM274.835 60.239C269.885 68.7171 263.861 72.25 256.653 72.25V82.25C268.165 82.25 277.141 76.1229 283.471 65.281L274.835 60.239ZM277.887 79.23H272.887C272.887 79.5247 272.913 79.8188 272.965 80.109L277.887 79.23ZM278.877 78.33V73.33C278.577 73.33 278.277 73.357 277.982 73.4107L278.877 78.33ZM292.287 74.28L289.835 69.9221C289.828 69.9265 289.82 69.931 289.812 69.9354L292.287 74.28ZM295.167 59.61L292.277 63.6901C292.296 63.7036 292.315 63.717 292.334 63.7302L295.167 59.61ZM297.147 44.67L299.627 49.0112C299.643 49.0024 299.658 48.9934 299.674 48.9844L297.147 44.67ZM313.347 41.07L312.366 45.9729C312.689 46.0375 313.017 46.07 313.347 46.07V41.07ZM314.157 40.53L310.088 37.6238C310.057 37.6675 310.026 37.7118 309.996 37.7565L314.157 40.53ZM315.147 39.18L319.147 42.18L319.147 42.18L315.147 39.18ZM317.127 37.92L318.882 42.6016C318.966 42.5703 319.049 42.5366 319.131 42.5008L317.127 37.92ZM325.047 39.09L328.339 42.8529C328.828 42.4253 329.229 41.9067 329.519 41.326L325.047 39.09ZM314.517 54.57L319.086 56.6007C319.114 56.5378 319.14 56.4743 319.166 56.4102L314.517 54.57ZM310.557 54.03L306.676 57.183C306.71 57.2241 306.744 57.2646 306.778 57.3046L310.557 54.03ZM309.837 48.54L314.609 50.0314C314.617 50.0046 314.626 49.9777 314.634 49.9508L309.837 48.54ZM302.997 47.28L305.391 51.6695C305.406 51.6613 305.421 51.653 305.436 51.6447L302.997 47.28ZM304.527 58.26L307.493 54.2347C307.46 54.2107 307.427 54.1871 307.394 54.1638L304.527 58.26ZM307.587 61.5L303.456 64.3167C303.484 64.3585 303.513 64.3999 303.543 64.4409L307.587 61.5ZM301.017 76.71L298.388 72.4566C298.377 72.4637 298.365 72.4709 298.354 72.478L301.017 76.71ZM282.887 79.23C282.887 80.2781 282.461 81.4689 281.498 82.3447C280.704 83.0659 279.93 83.2205 279.771 83.2493L277.982 73.4107C277.164 73.5595 275.894 73.9241 274.771 74.9453C273.477 76.1211 272.887 77.7019 272.887 79.23H282.887ZM278.877 83.33C284.166 83.33 289.487 81.6291 294.761 78.6246L289.812 69.9354C285.606 72.3309 281.987 73.33 278.877 73.33V83.33ZM294.738 78.6379C299.757 75.8148 304.487 71.7141 304.487 65.82H294.487C294.487 65.8551 294.483 65.9309 294.421 66.0794C294.354 66.2414 294.204 66.5175 293.879 66.8994C293.2 67.6972 291.947 68.7342 289.835 69.9221L294.738 78.6379ZM304.487 65.82C304.487 61.1944 301.381 57.8148 297.999 55.4898L292.334 63.7302C293.455 64.5011 294.031 65.1134 294.302 65.5028C294.54 65.844 294.487 65.9235 294.487 65.82H304.487ZM298.057 55.5299C296.937 54.737 296.352 54.1009 296.069 53.6821C295.935 53.484 295.883 53.3557 295.863 53.2968C295.846 53.2435 295.847 53.224 295.847 53.22H285.847C285.847 57.8399 288.871 61.2777 292.277 63.6901L298.057 55.5299ZM295.847 53.22C295.847 52.4752 296.187 50.977 299.627 49.0112L294.666 40.3288C289.706 43.163 285.847 47.3648 285.847 53.22H295.847ZM299.674 48.9844C303.034 47.0162 306.916 45.98 311.457 45.98V35.98C305.317 35.98 299.659 37.4038 294.62 40.3556L299.674 48.9844ZM311.457 45.98C311.894 45.98 312.205 45.987 312.411 45.9968C312.514 46.0017 312.565 46.0061 312.578 46.0074C312.604 46.0099 312.518 46.0032 312.366 45.9729L314.327 36.1671C313.455 35.9927 312.315 35.98 311.457 35.98V45.98ZM313.347 46.07C315.982 46.07 317.591 44.3928 318.317 43.3035L309.996 37.7565C310.127 37.5603 310.436 37.1509 311.001 36.7748C311.617 36.364 312.428 36.07 313.347 36.07V46.07ZM318.225 43.4362C318.5 43.0523 318.806 42.6338 319.147 42.18L311.147 36.18C310.767 36.6862 310.414 37.1677 310.088 37.6238L318.225 43.4362ZM319.147 42.18C318.874 42.5437 318.628 42.703 318.596 42.7233C318.559 42.7466 318.633 42.6951 318.882 42.6016L315.371 33.2384C314.078 33.7231 312.355 34.5686 311.147 36.18L319.147 42.18ZM319.131 42.5008C319.317 42.4191 319.743 42.29 320.547 42.29V32.29C318.71 32.29 316.856 32.5809 315.123 33.3392L319.131 42.5008ZM320.547 42.29C321.198 42.29 321.698 42.3143 322.067 42.3505C322.453 42.3884 322.598 42.43 322.578 42.4243C322.562 42.4194 322.454 42.3873 322.29 42.3069C322.13 42.2281 321.852 42.0726 321.542 41.7986C321.222 41.5167 320.852 41.0948 320.567 40.5081C320.275 39.9064 320.137 39.2624 320.137 38.64H330.137C330.137 36.7803 329.265 35.2771 328.158 34.3002C327.196 33.4517 326.13 33.0453 325.4 32.8307C323.93 32.3984 322.201 32.29 320.547 32.29V42.29ZM320.137 38.64C320.137 38.2968 320.19 37.6237 320.575 36.854L329.519 41.326C330.024 40.3163 330.137 39.3432 330.137 38.64H320.137ZM321.754 35.3271C320.321 36.5808 318.296 39.1078 315.908 42.3117L323.925 48.2883C326.457 44.8922 327.852 43.2792 328.339 42.8529L321.754 35.3271ZM315.908 42.3117C313.266 45.8564 311.213 49.3317 309.868 52.7298L319.166 56.4102C320.101 54.0483 321.648 51.3435 323.925 48.2883L315.908 42.3117ZM309.948 52.5393C310.31 51.7248 310.953 51.0767 311.696 50.7054C312.337 50.3846 312.827 50.38 312.897 50.38V60.38C314.741 60.38 317.712 59.6921 319.086 56.6007L309.948 52.5393ZM312.897 50.38C313.512 50.38 313.974 50.5668 314.225 50.7116C314.445 50.8384 314.471 50.9121 314.335 50.7553L306.778 57.3046C308.006 58.7209 310.044 60.38 312.897 60.38V50.38ZM314.437 50.877C314.264 50.6635 314.24 50.5858 314.267 50.647C314.299 50.7204 314.387 50.9611 314.387 51.33H304.387C304.387 53.7516 305.503 55.7389 306.676 57.183L314.437 50.877ZM314.387 51.33C314.387 50.9913 314.442 50.5647 314.609 50.0314L305.064 47.0486C304.631 48.4353 304.387 49.8687 304.387 51.33H314.387ZM314.634 49.9508C314.791 49.4145 314.926 48.9346 315.025 48.5377C315.074 48.3418 315.126 48.1205 315.169 47.898C315.193 47.7692 315.287 47.2967 315.287 46.74H305.287C305.287 46.5847 305.294 46.4592 305.301 46.3767C305.308 46.2911 305.316 46.2221 305.322 46.1749C305.334 46.0839 305.346 46.0241 305.349 46.0095C305.354 45.982 305.35 46.0082 305.324 46.1123C305.273 46.3154 305.182 46.6455 305.04 47.1292L314.634 49.9508ZM315.287 46.74C315.287 45.2731 314.785 43.3672 313.08 41.9819C311.573 40.758 309.875 40.57 308.847 40.57V50.57C308.779 50.57 307.8 50.577 306.774 49.7431C305.549 48.7478 305.287 47.4269 305.287 46.74H315.287ZM308.847 40.57C305.941 40.57 303.155 41.4638 300.558 42.9153L305.436 51.6447C306.918 50.8162 308.033 50.57 308.847 50.57V40.57ZM300.602 42.8905C299.01 43.7593 297.56 44.9767 296.525 46.6397C295.478 48.3211 295.027 50.1822 295.027 52.05H305.027C305.027 51.984 305.031 51.9378 305.034 51.9089C305.038 51.8803 305.041 51.867 305.042 51.8663C305.042 51.8657 305.04 51.8735 305.034 51.8868C305.028 51.9001 305.021 51.9136 305.014 51.9253C304.997 51.9524 304.995 51.9441 305.04 51.904C305.088 51.861 305.194 51.7769 305.391 51.6695L300.602 42.8905ZM295.027 52.05C295.027 56.667 298.352 60.0413 301.659 62.3562L307.394 54.1638C306.17 53.3068 305.516 52.6342 305.2 52.1986C304.911 51.7987 305.027 51.7755 305.027 52.05H295.027ZM301.561 62.2853C302.193 62.751 302.833 63.4033 303.456 64.3167L311.718 58.6833C310.541 56.9567 309.141 55.449 307.493 54.2347L301.561 62.2853ZM303.543 64.4409C303.968 65.0252 304.027 65.3948 304.027 65.64H314.027C314.027 63.0052 313.125 60.6148 311.63 58.5591L303.543 64.4409ZM304.027 65.64C304.027 67.1852 303.097 69.5465 298.388 72.4566L303.645 80.9634C309.616 77.2735 314.027 72.2548 314.027 65.64H304.027ZM298.354 72.478C293.802 75.3421 288.933 76.75 283.647 76.75V86.75C290.84 86.75 297.551 84.7979 303.68 80.942L298.354 72.478ZM283.647 76.75C282.949 76.75 282.428 76.7079 282.056 76.6506C281.675 76.592 281.536 76.5305 281.556 76.5392C281.583 76.5512 281.858 76.6763 282.167 77.0273C282.505 77.4105 282.726 77.886 282.809 78.351L272.965 80.109C273.477 82.9784 275.455 84.7854 277.548 85.7008C279.431 86.5247 281.598 86.75 283.647 86.75V76.75Z" fill="white" mask="url(#path-1-outside-1_2_2)"/>
</g>
<defs>
<filter id="filter0_d_2_2" x="0.710022" y="0.839996" width="328.427" height="90.71" filterUnits="userSpaceOnUse" color-interpolation-filters="sRGB">
<feFlood flood-opacity="0" result="BackgroundImageFix"/>
<feColorMatrix in="SourceAlpha" type="matrix" values="0 0 0 0 0 0 0 0 0 0 0 0 0 0 0 0 0 0 127 0" result="hardAlpha"/>
<feOffset dy="4"/>
<feGaussianBlur stdDeviation="2"/>
<feComposite in2="hardAlpha" operator="out"/>
<feColorMatrix type="matrix" values="0 0 0 0 0 0 0 0 0 0 0 0 0 0 0 0 0 0 0.25 0"/>
<feBlend mode="normal" in2="BackgroundImageFix" result="effect1_dropShadow_2_2"/>
<feBlend mode="normal" in="SourceGraphic" in2="effect1_dropShadow_2_2" result="shape"/>
</filter>
</defs>
</svg>
