<?xml version="1.0" standalone="no"?>
<svg xmlns:xlink="http://www.w3.org/1999/xlink" id="wave" style="transform:rotate(180deg); transition: 0.3s" viewBox="0 0 1440 340" version="1.1" xmlns="http://www.w3.org/2000/svg"><defs><linearGradient id="sw-gradient-0" x1="0" x2="0" y1="1" y2="0"><stop stop-color="rgba(243, 106, 62, 1)" offset="0%"/><stop stop-color="rgba(255, 179, 11, 1)" offset="100%"/></linearGradient></defs><path style="transform:translate(0, 0px); opacity:1" fill="url(#sw-gradient-0)" d="M0,238L17.1,209.7C34.3,181,69,125,103,85C137.1,45,171,23,206,17C240,11,274,23,309,62.3C342.9,102,377,170,411,209.7C445.7,249,480,261,514,232.3C548.6,204,583,136,617,90.7C651.4,45,686,23,720,62.3C754.3,102,789,204,823,243.7C857.1,283,891,261,926,221C960,181,994,125,1029,107.7C1062.9,91,1097,113,1131,141.7C1165.7,170,1200,204,1234,181.3C1268.6,159,1303,79,1337,39.7C1371.4,0,1406,0,1440,39.7C1474.3,79,1509,159,1543,209.7C1577.1,261,1611,283,1646,255C1680,227,1714,147,1749,141.7C1782.9,136,1817,204,1851,204C1885.7,204,1920,136,1954,130.3C1988.6,125,2023,181,2057,221C2091.4,261,2126,283,2160,243.7C2194.3,204,2229,102,2263,56.7C2297.1,11,2331,23,2366,22.7C2400,23,2434,11,2451,5.7L2468.6,0L2468.6,340L2451.4,340C2434.3,340,2400,340,2366,340C2331.4,340,2297,340,2263,340C2228.6,340,2194,340,2160,340C2125.7,340,2091,340,2057,340C2022.9,340,1989,340,1954,340C1920,340,1886,340,1851,340C1817.1,340,1783,340,1749,340C1714.3,340,1680,340,1646,340C1611.4,340,1577,340,1543,340C1508.6,340,1474,340,1440,340C1405.7,340,1371,340,1337,340C1302.9,340,1269,340,1234,340C1200,340,1166,340,1131,340C1097.1,340,1063,340,1029,340C994.3,340,960,340,926,340C891.4,340,857,340,823,340C788.6,340,754,340,720,340C685.7,340,651,340,617,340C582.9,340,549,340,514,340C480,340,446,340,411,340C377.1,340,343,340,309,340C274.3,340,240,340,206,340C171.4,340,137,340,103,340C68.6,340,34,340,17,340L0,340Z"/></svg>